SplineFontDB: 3.2
FontName: Roland
FullName: Roland
FamilyName: Roland
Weight: Light
Copyright: Copyright (c) 2020, Roland Bernard
UComments: "2020-8-28: Created with FontForge (http://fontforge.org)"
Version: 001.000
ItalicAngle: 0
UnderlinePosition: -100
UnderlineWidth: 50
Ascent: 800
Descent: 200
InvalidEm: 0
LayerCount: 2
Layer: 0 0 "Back" 1
Layer: 1 0 "Fore" 0
XUID: [1021 36 1614478912 10685025]
FSType: 0
OS2Version: 0
OS2_WeightWidthSlopeOnly: 0
OS2_UseTypoMetrics: 1
CreationTime: 1598628929
ModificationTime: 1600169268
PfmFamily: 17
TTFWeight: 1
TTFWidth: 8
LineGap: 90
VLineGap: 0
OS2TypoAscent: 0
OS2TypoAOffset: 1
OS2TypoDescent: 0
OS2TypoDOffset: 1
OS2TypoLinegap: 90
OS2WinAscent: 0
OS2WinAOffset: 1
OS2WinDescent: 0
OS2WinDOffset: 1
HheadAscent: 0
HheadAOffset: 1
HheadDescent: 0
HheadDOffset: 1
OS2CapHeight: 750
OS2XHeight: 500
OS2Vendor: 'PfEd'
MarkAttachClasses: 1
DEI: 91125
Encoding: UnicodeBmp
UnicodeInterp: none
NameList: AGL For New Fonts
DisplaySize: -48
AntiAlias: 1
FitToEm: 0
WinInfo: 60 30 15
BeginPrivate: 1
BlueValues 22 [-2 0 500 502 750 752]
EndPrivate
BeginChars: 65536 153

StartChar: X
Encoding: 88 88 1
Width: 845
Flags: MW
LayerCount: 2
Fore
SplineSet
30 750 m 1
 65.35546875 750 l 1
 422.677734375 392.67578125 l 1
 780 750 l 1
 815.35546875 750 l 1
 440.353515625 375 l 1
 815.35546875 0 l 1
 780 0 l 1
 422.677734375 357.32421875 l 1
 65.35546875 0 l 1
 30 0 l 1
 405.001953125 375 l 1
 30 750 l 1
EndSplineSet
EndChar

StartChar: Q
Encoding: 81 81 2
Width: 1196
Flags: MW
LayerCount: 2
Fore
SplineSet
407 752 m 2
 785 752 l 2
 993.063476562 752 1161 583.063476562 1161 375 c 2
 1161 374 l 2
 1161 274.4609375 1122.33203125 184.877929688 1059.21484375 117.462890625 c 1
 1176.67773438 0 l 1
 1141.32226562 0 l 1
 1041.53710938 99.78515625 l 1
 974.122070312 36.66796875 884.5390625 -2 785 -2 c 2
 407 -2 l 2
 198.936523438 -2 30 165.936523438 30 374 c 2
 30 375 l 2
 30 583.063476562 198.936523438 752 407 752 c 2
407 728 m 2
 212.447265625 728 55 569.552734375 55 375 c 2
 55 374 l 2
 55 179.447265625 212.447265625 22 407 22 c 2
 785 22 l 2
 877.91015625 22 961.357421875 58.138671875 1024.23632812 117.0859375 c 1
 906.673828125 234.6484375 l 1
 942.029296875 234.6484375 l 1
 1041.86328125 134.814453125 l 1
 1100.28710938 197.876953125 1136 281.34375 1136 374 c 2
 1136 375 l 2
 1136 569.552734375 979.552734375 728 785 728 c 2
 407 728 l 2
EndSplineSet
EndChar

StartChar: e
Encoding: 101 101 3
Width: 836
Flags: MW
LayerCount: 2
Fore
SplineSet
292 502 m 6
 544.505859375 502 l 6
 683.302734375 501.86328125 796 388.859375 796 250 c 6
 796 238 l 5
 65.314453125 238 l 5
 65.318359375 237.921875 l 6
 71.5595703125 117.973632812 170.534179688 22 292 22 c 6
 569 22 l 6
 631.68359375 22 688.37109375 47.5625 729.419921875 88.787109375 c 5
 746.734375 71.47265625 l 5
 701.14453125 26.083984375 638.3125 -2 569 -2 c 6
 292 -2 l 6
 152.97265625 -2 39.9208984375 110.97265625 40 250 c 6
 40 251 l 6
 40.0791015625 389.780273438 153.15234375 502.13671875 292 502 c 6
292 478 m 6
 170.524414062 478.080078125 71.5517578125 382.009765625 65.318359375 262.048828125 c 6
 65.314453125 262 l 5
 770.681640625 262 l 5
 770.681640625 262.0625 l 5
 764.899414062 381.938476562 665.637695312 477.919921875 544.306640625 478 c 6
 292 478 l 6
EndSplineSet
EndChar

StartChar: exclam
Encoding: 33 33 4
Width: 150
Flags: MW
LayerCount: 2
Fore
SplineSet
62.5 175 m 5
 62.5 750 l 5
 87.5 750 l 5
 87.5 175 l 5
 62.5 175 l 5
50 23 m 4
 50 36.806640625 61.193359375 48 75 48 c 4
 88.806640625 48 100 36.806640625 100 23 c 4
 100 9.193359375 88.806640625 -2 75 -2 c 4
 61.193359375 -2 50 9.193359375 50 23 c 4
EndSplineSet
EndChar

StartChar: quotedbl
Encoding: 34 34 5
Width: 200
Flags: MW
LayerCount: 2
Fore
SplineSet
37.5 550 m 1
 37.5 750 l 1
 62.5 750 l 1
 62.5 550 l 1
 37.5 550 l 1
137.5 550 m 1
 137.5 750 l 1
 162.5 750 l 1
 162.5 550 l 1
 137.5 550 l 1
EndSplineSet
EndChar

StartChar: numbersign
Encoding: 35 35 6
Width: 927
Flags: MW
LayerCount: 2
Fore
SplineSet
325.666015625 750 m 5
 352.01953125 750 l 5
 272.6875 512 l 5
 746.333984375 512 l 5
 825.666015625 750 l 5
 852.01953125 750 l 5
 772.6875 512 l 5
 897.6875 512 l 5
 889.6875 488 l 5
 764.6875 488 l 5
 689.353515625 262 l 5
 814.35546875 262 l 5
 806.35546875 238 l 5
 681.353515625 238 l 5
 602.021484375 0 l 5
 575.66796875 0 l 5
 655 238 l 5
 181.353515625 238 l 5
 102.021484375 0 l 5
 75.66796875 0 l 5
 155 238 l 5
 30 238 l 5
 38 262 l 5
 163 262 l 5
 238.333984375 488 l 5
 113.33203125 488 l 5
 121.33203125 512 l 5
 246.333984375 512 l 5
 325.666015625 750 l 5
264.6875 488 m 5
 189.353515625 262 l 5
 663 262 l 5
 738.333984375 488 l 5
 264.6875 488 l 5
EndSplineSet
EndChar

StartChar: zero
Encoding: 48 48 7
Width: 814
Flags: HMW
LayerCount: 2
Fore
SplineSet
406 752 m 0
 614.063476562 752 783.033203125 583.063476562 783 375 c 2
 783 374.877929688 l 2
 782.966796875 166.870117188 614.022460938 -2 406 -2 c 0
 197.9765625 -2 29.0322265625 166.872070312 29 374.880859375 c 2
 29 375 l 2
 28.9677734375 583.063476562 197.936523438 752 406 752 c 0
406 728 m 0
 211.447265625 728 53.951171875 569.552734375 54 375 c 2
 54 374.817382812 l 2
 54.0498046875 180.348632812 211.508789062 22 406 22 c 0
 600.51953125 22 757.973632812 180.39453125 758 374.901367188 c 2
 758 375 l 2
 758.026367188 569.552734375 600.552734375 728 406 728 c 0
EndSplineSet
EndChar

StartChar: one
Encoding: 49 49 8
Width: 334
Flags: HMW
LayerCount: 2
Fore
SplineSet
30 683.6875 m 1
 284.9453125 752 l 1
 284.9453125 0 l 1
 259.9453125 0 l 1
 259.9453125 720.455078125 l 1
 36.212890625 660.505859375 l 1
 30 683.6875 l 1
EndSplineSet
EndChar

StartChar: two
Encoding: 50 50 9
Width: 834
Flags: HMW
LayerCount: 2
Fore
SplineSet
290 751.974609375 m 2
 542 752 l 2
 681.02734375 752 794 639.02734375 794 500 c 0
 794 406.228515625 742.600585938 324.319335938 666.482421875 280.923828125 c 1
 146 24 l 1
 792 24 l 1
 792 0 l 1
 40 0 l 1
 654.369140625 301.908203125 l 1
 722.877929688 341.248046875 769 415.38671875 769 500 c 0
 769 625.516601562 667.516601562 728 542 728 c 2
 290 727.974609375 l 2
 165.409179688 726.890625 65 624.84765625 65 500 c 1
 40 500 l 1
 40 638.359375 151.892578125 750.895507812 290 751.974609375 c 2
EndSplineSet
EndChar

StartChar: three
Encoding: 51 51 10
Width: 832
Flags: HMW
LayerCount: 2
Fore
SplineSet
229.75 752.5 m 2
 592.314453125 752.5 l 2
 699.694335938 752.5 787.024414062 665.137695312 787 557.75 c 2
 787 557.662109375 l 2
 786.981445312 474.198242188 734.18359375 402.875976562 660.244140625 375.25 c 1
 734.193359375 347.620117188 786.984375 276.28125 787 192.802734375 c 2
 787 192.75 l 2
 787.020507812 85.3583984375 699.688476562 -2 592.303710938 -2 c 2
 229.75 -2 l 2
 122.340820312 -2 35 85.3408203125 35 192.75 c 1
 60 192.75 l 1
 60 98.8515625 135.8515625 22 229.75 22 c 2
 592.318359375 22 l 2
 686.185546875 22 762.014648438 98.875 762 192.75 c 2
 762 192.8125 l 2
 761.985351562 283.51171875 691.163085938 358.284179688 601.697265625 363.232421875 c 1
 179.75 363.5 l 1
 179.75 387.5 l 1
 601.697265625 387.267578125 l 1
 691.153320312 392.215820312 761.979492188 466.97265625 762 557.659179688 c 2
 762 557.75 l 2
 762.020507812 651.623046875 686.189453125 728.5 592.325195312 728.5 c 2
 229.75 728.5 l 2
 135.8515625 728.5 60 651.6484375 60 557.75 c 1
 35 557.75 l 1
 35 665.159179688 122.340820312 752.5 229.75 752.5 c 2
EndSplineSet
EndChar

StartChar: four
Encoding: 52 52 11
Width: 840
Flags: HMW
LayerCount: 2
Fore
SplineSet
66.5390625 750 m 5
 91.626953125 750 l 5
 65.666015625 465.251953125 l 6
 65.234375 460.22265625 65 455.137695312 65 450 c 4
 65 353.202148438 143.202148438 274 240 274 c 6
 765 274 l 5
 765 750 l 5
 790 750 l 5
 790 0 l 5
 765 0 l 5
 765 250 l 5
 240 250 l 6
 129.69140625 250 40 339.69140625 40 450 c 4
 40 455.873046875 40.26953125 461.68359375 40.767578125 467.4296875 c 6
 66.5390625 750 l 5
EndSplineSet
EndChar

StartChar: five
Encoding: 53 53 12
Width: 841
Flags: HMW
LayerCount: 2
Fore
SplineSet
70 750 m 1
 750 750 l 1
 750 726 l 1
 93 726 l 1
 75 450.017578125 l 1
 117.46875 482.60546875 170.571289062 502 228.15625 502 c 2
 550.01953125 502 l 2
 689.029296875 502 801.98046875 389.014648438 801.98046875 250 c 2
 801.98046875 249.892578125 l 2
 801.98046875 110.930664062 688.997070312 -2 550.02734375 -2 c 2
 228.15625 -2 l 2
 158.642578125 -2 95.642578125 26.244140625 50.021484375 71.865234375 c 1
 67.341796875 89.185546875 l 1
 108.421875 47.7275390625 165.270507812 22 228.15625 22 c 2
 550.044921875 22 l 2
 675.510742188 22 776.98046875 124.469726562 776.98046875 249.935546875 c 2
 776.98046875 250 l 2
 776.98046875 375.495117188 675.532226562 478 550.044921875 478 c 2
 228.15625 478 l 2
 169.092773438 478 115.35546875 455.301757812 75.005859375 418.193359375 c 1
 50 418.193359375 l 1
 70 750 l 1
EndSplineSet
EndChar

StartChar: seven
Encoding: 55 55 13
Width: 814
Flags: HMW
LayerCount: 2
Fore
SplineSet
30 750 m 5
 784 750 l 5
 82.619140625 -2.140625 l 5
 64.333984375 14.91015625 l 5
 727.435546875 726 l 5
 30 726 l 5
 30 750 l 5
EndSplineSet
EndChar

StartChar: six
Encoding: 54 54 14
Width: 836
Flags: HMW
LayerCount: 2
Fore
SplineSet
569.177734375 751.59765625 m 1
 583.421875 731.255859375 l 1
 250.5 498 l 1
 263.84765625 500.184570312 278.03515625 502 292 502 c 2
 544 502 l 2
 683.17578125 502 796.047851562 389.17578125 796 250 c 2
 796 249.823242188 l 2
 795.952148438 110.728515625 683.1171875 -2 544 -2 c 2
 292 -2 l 2
 152.982421875 -2 40.1279296875 110.568359375 40.0009765625 249.52734375 c 2
 40 250 l 2
 39.923828125 332.681640625 79.931640625 405.9140625 141.328125 452.013671875 c 2
 569.177734375 751.59765625 l 1
292 478.017578125 m 2
 166.850585938 477.708984375 65 375.150390625 65 250 c 2
 65 249.814453125 l 2
 65.05078125 124.530273438 166.693359375 22 292 22 c 2
 544 22 l 2
 669.286132812 22 770.932617188 124.495117188 771 249.750976562 c 2
 771 250 l 2
 771.000976562 375.150390625 669.709960938 477.69140625 544.560546875 478 c 2
 292 478.017578125 l 2
EndSplineSet
EndChar

StartChar: nine
Encoding: 57 57 15
Width: 836
Flags: HMW
LayerCount: 2
Fore
SplineSet
266.822265625 -1.595703125 m 1
 252.578125 18.74609375 l 1
 585.5 252.001953125 l 1
 572.15234375 249.817382812 557.96484375 248.001953125 544 248.001953125 c 2
 292 248.001953125 l 2
 152.82421875 248.001953125 39.9521484375 360.826171875 40 500.001953125 c 2
 40 500.178710938 l 2
 40.0478515625 639.2734375 152.8828125 752.001953125 292 752.001953125 c 2
 544 752.001953125 l 2
 683.018554688 752.001953125 795.872070312 639.43359375 796 500.474609375 c 2
 796 500.001953125 l 2
 796.076171875 417.3203125 756.068359375 344.087890625 694.671875 297.98828125 c 2
 266.822265625 -1.595703125 l 1
544 271.984375 m 2
 669.149414062 272.29296875 771 374.8515625 771 500.001953125 c 2
 771 500.1875 l 2
 770.950195312 625.471679688 669.306640625 728.001953125 544 728.001953125 c 2
 292 728.001953125 l 2
 166.713867188 728.001953125 65.0673828125 625.506835938 65 500.250976562 c 2
 65 500.001953125 l 2
 65 374.8515625 166.290039062 272.310546875 291.439453125 272.001953125 c 2
 544 271.984375 l 2
EndSplineSet
EndChar

StartChar: eight
Encoding: 56 56 16
Width: 844
Flags: HMW
LayerCount: 2
Fore
SplineSet
239.75 752 m 6
 604.25 752 l 6
 711.807617188 752 799 664.807617188 799 557.25 c 6
 799 557.0859375 l 6
 798.96484375 476.075195312 747.717773438 403.559570312 671.896484375 375 c 5
 747.768554688 346.421875 799 273.827148438 799 192.75 c 6
 799 192.568359375 l 6
 798.953125 85.0947265625 711.747070312 -2 604.25 -2 c 6
 239.75 -2 l 6
 132.248046875 -2 45.044921875 85.1025390625 45 192.583984375 c 6
 45 192.75 l 6
 45 273.827148438 96.2314453125 346.421875 172.103515625 375 c 5
 96.279296875 403.560546875 45.0322265625 476.081054688 45 557.095703125 c 6
 45 557.25 l 6
 45 664.807617188 132.192382812 752 239.75 752 c 6
239.333984375 728 m 6
 145.74609375 728 70 650.837890625 70 557.25 c 6
 70 557.146484375 l 6
 70.0283203125 463.443359375 146.034179688 387 239.75 387 c 6
 604.25 387 l 6
 697.961914062 387 773.967773438 463.436523438 774 557.133789062 c 6
 774 557.25 l 6
 774 650.837890625 698.25390625 728 604.666015625 728 c 6
 239.333984375 728 l 6
239.333984375 363 m 6
 145.74609375 363 70 286.337890625 70 192.75 c 6
 70 192.609375 l 6
 70.0380859375 98.9228515625 146.046875 22 239.75 22 c 6
 604.25 22 l 6
 697.952148438 22 773.961914062 98.919921875 774 192.604492188 c 6
 774 192.75 l 6
 774 286.337890625 698.25390625 363 604.666015625 363 c 6
 239.333984375 363 l 6
EndSplineSet
EndChar

StartChar: R
Encoding: 82 82 17
Width: 746
Flags: HMW
LayerCount: 2
Fore
SplineSet
50 750 m 5
 522.25 750 l 6
 629.668945312 750 716.764648438 662.918945312 716.75 555.5 c 6
 716.75 555.42578125 l 6
 716.735351562 448.041015625 629.64453125 363 522.25 363 c 6
 353.75 363 l 5
 716.75 0 l 5
 681.39453125 0 l 5
 318.39453125 363 l 5
 75 363 l 5
 75 0 l 5
 50 0 l 5
 50 750 l 5
75 726 m 5
 75 387 l 5
 522.25 387 l 6
 615.827148438 387 691.723632812 461.831054688 691.75 555.39453125 c 6
 691.75 555.5 l 6
 691.776367188 649.112304688 615.862304688 726 522.25 726 c 6
 75 726 l 5
EndSplineSet
EndChar

StartChar: o
Encoding: 111 111 18
Width: 834
Flags: HMW
LayerCount: 2
Fore
SplineSet
291.801757812 502 m 2
 542 502 l 2
 681.17578125 502 794 389.17578125 794 250 c 2
 794 249.920898438 l 2
 794 110.814453125 681.203125 -2 542.098632812 -2 c 2
 292 -2 l 2
 152.854492188 -2 40.025390625 110.774414062 40 249.908203125 c 2
 40 250 l 2
 39.9755859375 389.109375 152.716796875 502 291.801757812 502 c 2
291.439453125 478 m 2
 166.290039062 477.69140625 65 375.150390625 65 250 c 2
 65 249.888671875 l 2
 65.0302734375 124.5703125 166.668945312 22 292 22 c 2
 542.090820312 22 l 2
 667.385742188 22 768.973632812 124.609375 769 249.903320312 c 2
 769 250 l 2
 769.026367188 375.368164062 667.368164062 478 542 478 c 2
 291.439453125 478 l 2
EndSplineSet
EndChar

StartChar: l
Encoding: 108 108 19
Width: 235
Flags: HMW
LayerCount: 2
Fore
SplineSet
30 750 m 1
 130 750 l 1
 130 24 l 1
 205 24 l 1
 205 0 l 1
 30 0 l 1
 30 24 l 1
 105 24 l 1
 105 726 l 1
 30 726 l 1
 30 750 l 1
EndSplineSet
EndChar

StartChar: a
Encoding: 97 97 20
Width: 842
Flags: HMW
LayerCount: 2
Fore
SplineSet
291.80078125 502.080078125 m 2
 540 502.080078125 l 2
 639.904296875 502.080078125 726.239257812 442.963867188 767 358.6640625 c 1
 767 500 l 1
 792 500 l 1
 792 0 l 1
 767 0 l 1
 767 141.498046875 l 1
 726.251953125 57.232421875 639.961914062 -1.919921875 540.099609375 -1.919921875 c 2
 292 -1.919921875 l 2
 152.854492188 -1.919921875 40 110.852539062 40 249.986328125 c 2
 40 250.080078125 l 2
 40 389.189453125 152.715820312 502.080078125 291.80078125 502.080078125 c 2
291.439453125 478.080078125 m 2
 166.290039062 477.771484375 65 375.23046875 65 250.080078125 c 2
 65 249.96875 l 2
 65 124.650390625 166.668945312 22.080078125 292 22.080078125 c 2
 540.08984375 22.080078125 l 2
 665.384765625 22.080078125 766.973632812 124.6875 767 249.982421875 c 2
 767 250.080078125 l 2
 767.026367188 375.448242188 665.368164062 478.080078125 540 478.080078125 c 2
 291.439453125 478.080078125 l 2
EndSplineSet
EndChar

StartChar: n
Encoding: 110 110 21
Width: 852
Flags: HMW
LayerCount: 2
Fore
SplineSet
302 502 m 2
 550.19921875 502 l 2
 689.284179688 502 802 389.109375 802 250 c 2
 802 0 l 1
 777 0 l 1
 777 250 l 2
 777 375.150390625 675.709960938 477.69140625 550.560546875 478 c 2
 302 478 l 2
 176.631835938 478 74.9736328125 375.368164062 75 250 c 2
 75 -0.080078125 l 1
 50 -0.080078125 l 1
 50 499.919921875 l 1
 75 499.919921875 l 1
 75 358.583984375 l 1
 115.76171875 442.883789062 202.095703125 502 302 502 c 2
EndSplineSet
EndChar

StartChar: r
Encoding: 114 114 22
Width: 454
Flags: HMW
LayerCount: 2
Fore
SplineSet
50 500 m 1
 75 500 l 1
 75 358.6640625 l 1
 115.760742188 442.963867188 202.095703125 502.118164062 302 502.080078125 c 2
 302.19921875 502.080078125 l 2
 346.790039062 502.0625 388.6640625 490.4375 424.9921875 470.0859375 c 1
 412.80859375 448.984375 l 1
 380.189453125 467.404296875 342.600585938 477.981445312 302.560546875 478.080078125 c 2
 302 478.080078125 l 2
 176.631835938 478.080078125 74.9736328125 375.448242188 75 250.080078125 c 2
 75 0 l 1
 50 0 l 1
 50 500 l 1
EndSplineSet
EndChar

StartChar: d
Encoding: 100 100 23
Width: 832
Flags: HMW
LayerCount: 2
Fore
SplineSet
281.80078125 502.080078125 m 2
 530 502.080078125 l 2
 629.904296875 502.080078125 716.239257812 442.963867188 757 358.6640625 c 1
 757 750 l 1
 782 750 l 1
 782 0 l 1
 757 0 l 1
 757 141.498046875 l 1
 716.251953125 57.232421875 629.961914062 -1.919921875 530.099609375 -1.919921875 c 2
 282 -1.919921875 l 2
 142.854492188 -1.919921875 30 110.852539062 30 249.986328125 c 2
 30 250.080078125 l 2
 30 389.189453125 142.715820312 502.080078125 281.80078125 502.080078125 c 2
281.439453125 478.080078125 m 2
 156.290039062 477.771484375 55 375.23046875 55 250.080078125 c 2
 55 249.96875 l 2
 55 124.650390625 156.668945312 22.080078125 282 22.080078125 c 2
 530.08984375 22.080078125 l 2
 655.384765625 22.080078125 756.973632812 124.6875 757 249.982421875 c 2
 757 250.080078125 l 2
 757.026367188 375.448242188 655.368164062 478.080078125 530 478.080078125 c 2
 281.439453125 478.080078125 l 2
EndSplineSet
EndChar

StartChar: B
Encoding: 66 66 24
Width: 761
Flags: HMW
LayerCount: 2
Fore
SplineSet
50 750 m 5
 522.25 750 l 6
 629.668945312 750 716.764648438 662.918945312 716.75 555.5 c 6
 716.75 555.42578125 l 6
 716.73828125 471.985351562 663.147460938 402.045898438 589.314453125 375 c 5
 663.147460938 347.954101562 716.73828125 278.014648438 716.75 194.57421875 c 6
 716.75 194.5 l 6
 716.764648438 87.0810546875 629.668945312 0 522.25 0 c 6
 50 0 l 5
 50 750 l 5
75 726 m 5
 75 387 l 5
 522.25 387 l 6
 615.827148438 387 691.723632812 461.831054688 691.75 555.39453125 c 6
 691.75 555.5 l 6
 691.776367188 649.112304688 615.862304688 726 522.25 726 c 6
 75 726 l 5
75 363 m 5
 75 24 l 5
 522.25 24 l 6
 615.862304688 24 691.776367188 100.887695312 691.75 194.5 c 6
 691.75 194.60546875 l 6
 691.723632812 288.168945312 615.827148438 363 522.25 363 c 6
 75 363 l 5
EndSplineSet
EndChar

StartChar: b
Encoding: 98 98 25
Width: 842
Flags: HMW
LayerCount: 2
Fore
SplineSet
550.19921875 504 m 6
 689.284179688 504 802 391.109375 802 252 c 6
 802 251.90625 l 6
 802 112.772460938 689.145507812 0 550 0 c 6
 301.900390625 0 l 6
 202.038085938 0 115.748046875 59.1533203125 75 143.41796875 c 5
 75 1.919921875 l 5
 50 1.919921875 l 5
 50 751.919921875 l 5
 75 751.919921875 l 5
 75 360.583984375 l 5
 115.760742188 444.883789062 202.095703125 504 302 504 c 6
 550.19921875 504 l 6
550.560546875 480 m 6
 302 480 l 6
 176.631835938 480 74.9736328125 377.368164062 75 252 c 6
 75 251.90234375 l 6
 75.0263671875 126.607421875 176.615234375 24 301.91015625 24 c 6
 550 24 l 6
 675.331054688 24 777 126.5703125 777 251.888671875 c 6
 777 252 l 6
 777 377.150390625 675.709960938 479.69140625 550.560546875 480 c 6
EndSplineSet
EndChar

StartChar: c
Encoding: 99 99 26
Width: 750
Flags: HMW
LayerCount: 2
Fore
SplineSet
291.80078125 502 m 6
 542 502 l 6
 611.607421875 502 674.624023438 473.776367188 720.23046875 428.150390625 c 5
 702.802734375 410.72265625 l 5
 661.698242188 452.21875 604.828125 478 542 478 c 6
 291.439453125 478 l 6
 166.290039062 477.69140625 65 375.150390625 65 250 c 6
 65 249.888671875 l 6
 65.0302734375 124.5703125 166.668945312 22 292 22 c 6
 542.08984375 22 l 6
 604.84765625 22 661.655273438 47.744140625 702.734375 89.185546875 c 5
 720.16796875 71.751953125 l 5
 674.583984375 26.185546875 611.62890625 -2 542.099609375 -2 c 6
 292 -2 l 6
 152.854492188 -2 40.025390625 110.772460938 40 249.90625 c 6
 40 250 l 6
 39.9755859375 389.109375 152.715820312 502 291.80078125 502 c 6
EndSplineSet
EndChar

StartChar: f
Encoding: 102 102 27
Width: 311
Flags: HMW
LayerCount: 2
Fore
SplineSet
231 752 m 2
 281 752 l 1
 281 728 l 1
 231 728 l 2
 175.219726562 728 130 681.780273438 130 626 c 2
 130 500 l 1
 280 500 l 1
 280 476 l 1
 130 476 l 1
 130 0 l 1
 105 0 l 1
 105 476 l 1
 30 476 l 1
 30 500 l 1
 105 500 l 1
 105 626 l 2
 105 695.587890625 161.412109375 752 231 752 c 2
EndSplineSet
EndChar

StartChar: g
Encoding: 103 103 28
Width: 842
Flags: HMW
LayerCount: 2
Fore
SplineSet
292 502 m 2
 540.099609375 502 l 2
 639.961914062 502 726.251953125 442.846679688 767 358.58203125 c 1
 767 500.080078125 l 1
 792 500.080078125 l 1
 792 -49.919921875 l 2
 792 -132.762695312 724.842773438 -199.919921875 642 -199.919921875 c 2
 215 -199.919921875 l 2
 132.157226562 -199.919921875 65 -132.762695312 65 -49.919921875 c 1
 90 -49.919921875 l 1
 90 -118.955078125 145.96484375 -175.919921875 215 -175.919921875 c 2
 642 -175.919921875 l 2
 711.03515625 -175.919921875 767 -118.955078125 767 -49.919921875 c 2
 767 141.416015625 l 1
 726.239257812 57.1162109375 639.904296875 -2 540 -2 c 2
 291.80078125 -2 l 2
 152.715820312 -2 40 110.890625 40 250 c 2
 40 250.09375 l 2
 40 389.227539062 152.85546875 502 292 502 c 2
292 478 m 2
 166.668945312 478 65 375.4296875 65 250.111328125 c 2
 65 250 l 2
 65 124.849609375 166.290039062 22.30859375 291.439453125 22 c 2
 540 22 l 2
 665.368164062 22 767.026367188 124.630859375 767 250 c 2
 767 250.09765625 l 2
 766.973632812 375.392578125 665.384765625 478 540.08984375 478 c 2
 292 478 l 2
EndSplineSet
EndChar

StartChar: h
Encoding: 104 104 29
Width: 852
Flags: HMW
LayerCount: 2
Fore
SplineSet
302 502 m 6
 550.19921875 502 l 6
 689.284179688 502 802 389.109375 802 250 c 6
 802 0 l 5
 777 0 l 5
 777 250 l 6
 777 375.150390625 675.709960938 477.69140625 550.560546875 478 c 6
 302 478 l 6
 176.631835938 478 74.9736328125 375.368164062 75 250 c 6
 75 -0.080078125 l 5
 50 -0.080078125 l 5
 50 749.919921875 l 5
 75 749.919921875 l 5
 75 358.583984375 l 5
 115.76171875 442.883789062 202.095703125 502 302 502 c 6
EndSplineSet
EndChar

StartChar: i
Encoding: 105 105 30
Width: 235
Flags: HMW
LayerCount: 2
Fore
SplineSet
30 500 m 5
 130 500 l 5
 130 24 l 5
 205 24 l 5
 205 0 l 5
 30 0 l 5
 30 24 l 5
 105 24 l 5
 105 476 l 5
 30 476 l 5
 30 500 l 5
142.498046875 625 m 0
 142.5 638.797851562 131.297851562 650 117.5 650 c 0
 103.702148438 650 92.5 638.797851562 92.5 625 c 0
 92.5 611.202148438 103.702148438 600 117.5 600 c 0
 131.297851562 600 142.498046875 611.202148438 142.498046875 625 c 0
EndSplineSet
EndChar

StartChar: j
Encoding: 106 106 31
Width: 312
Flags: HMW
LayerCount: 2
Fore
SplineSet
90 499.999023438 m 1
 250 499.999023438 l 1
 250 -0.0009765625 l 2
 250 -110.290039062 160.729492188 -199.864257812 50.50390625 -200 c 2
 50 -200.000976562 l 1
 50 -176.000976562 l 1
 50.291015625 -176.000976562 l 2
 146.807617188 -175.920898438 225 -96.5537109375 225 -0.0009765625 c 2
 225 475 l 1
 90 474.997070312 l 1
 90 499.999023438 l 1
262.5 624.999023438 m 0
 262.5 638.796875 251.297851562 649.999023438 237.5 649.999023438 c 0
 223.702148438 649.999023438 212.5 638.796875 212.5 624.999023438 c 0
 212.5 611.201171875 223.702148438 599.999023438 237.5 599.999023438 c 0
 251.297851562 599.999023438 262.5 611.201171875 262.5 624.999023438 c 0
EndSplineSet
EndChar

StartChar: k
Encoding: 107 107 32
Width: 642
Flags: HMW
LayerCount: 2
Fore
SplineSet
50 750 m 1
 75 750 l 1
 75 218.541015625 l 1
 562.5 500 l 1
 612.5 500 l 1
 179.48828125 250 l 1
 612.5 0 l 1
 562.5 0 l 1
 154.48828125 235.56640625 l 1
 75 189.673828125 l 1
 75 0 l 1
 50 0 l 1
 50 750 l 1
EndSplineSet
EndChar

StartChar: m
Encoding: 109 109 33
Width: 1579
Flags: HMW
LayerCount: 2
Fore
SplineSet
302 502.080078125 m 2
 550.19921875 502.080078125 l 2
 661.875976562 502.080078125 756.536132812 429.291015625 789.513671875 328.59375 c 1
 822.514648438 429.249023438 917.153320312 502 1028.80078125 502 c 2
 1277.19921875 502.080078125 l 2
 1416.28417969 502.080078125 1529 389.189453125 1529 250.080078125 c 2
 1529 0.080078125 l 1
 1504 0.080078125 l 1
 1504 250.080078125 l 2
 1504 375.23046875 1402.70996094 477.771484375 1277.56054688 478.080078125 c 2
 1028.43945312 478 l 2
 903.290039062 477.69140625 802 375.150390625 802 250 c 2
 802 0 l 1
 777 0 l 1
 777 250.080078125 l 2
 777 375.23046875 675.709960938 477.771484375 550.560546875 478.080078125 c 2
 302 478.080078125 l 2
 176.631835938 478.080078125 74.9736328125 375.448242188 75 250.080078125 c 2
 75 0 l 1
 50 0 l 1
 50 500 l 1
 75 500 l 1
 75 358.6640625 l 1
 115.76171875 442.963867188 202.095703125 502.080078125 302 502.080078125 c 2
EndSplineSet
EndChar

StartChar: p
Encoding: 112 112 34
Width: 842
Flags: HMW
LayerCount: 2
Fore
SplineSet
550.19921875 -2 m 6
 302 -2 l 6
 202.095703125 -2 115.760742188 57.1162109375 75 141.416015625 c 5
 75 -199.919921875 l 5
 50 -199.919921875 l 5
 50 500.080078125 l 5
 75 500.080078125 l 5
 75 358.58203125 l 5
 115.748046875 442.84765625 202.038085938 502 301.900390625 502 c 6
 550 502 l 6
 689.14453125 502 802 389.227539062 802 250.09375 c 6
 802 250 l 6
 802 110.890625 689.284179688 -2 550.19921875 -2 c 6
550.560546875 22 m 6
 675.709960938 22.3095703125 777 124.849609375 777 250 c 6
 777 250.111328125 l 6
 777 375.4296875 675.331054688 478 550 478 c 6
 301.91015625 478 l 6
 176.615234375 478 75.0263671875 375.392578125 75 250.09765625 c 6
 75 250 l 6
 74.9736328125 124.631835938 176.631835938 22 302 22 c 6
 550.560546875 22 l 6
EndSplineSet
EndChar

StartChar: q
Encoding: 113 113 35
Width: 842
Flags: HMW
LayerCount: 2
Fore
SplineSet
291.80078125 -2 m 2
 152.715820312 -2 40 110.890625 40 250 c 2
 40 250.09375 l 2
 40 389.227539062 152.85546875 502 292 502 c 2
 540.099609375 502 l 2
 639.961914062 502 726.251953125 442.84765625 767 358.58203125 c 1
 767 500.080078125 l 1
 792 500.080078125 l 1
 792 -199.919921875 l 1
 767 -199.919921875 l 1
 767 141.416015625 l 1
 726.239257812 57.1162109375 639.904296875 -2 540 -2 c 2
 291.80078125 -2 l 2
291.439453125 22 m 2
 540 22 l 2
 665.368164062 22 767.026367188 124.631835938 767 250 c 2
 767 250.09765625 l 2
 766.973632812 375.392578125 665.384765625 478 540.08984375 478 c 2
 292 478 l 2
 166.668945312 478 65 375.4296875 65 250.111328125 c 2
 65 250 l 2
 65 124.849609375 166.290039062 22.3095703125 291.439453125 22 c 2
EndSplineSet
EndChar

StartChar: s
Encoding: 115 115 36
Width: 493
Flags: HMW
LayerCount: 2
Fore
SplineSet
162 502 m 6
 346.5 502 l 6
 381.608398438 502 413.568359375 488.19921875 437.24609375 465.74609375 c 5
 419.943359375 448.443359375 l 5
 400.801757812 466.727539062 374.98046875 478 346.5 478 c 6
 162 478 l 6
 102.7578125 478 55 429.2421875 55 370 c 6
 55 369.79296875 l 6
 55 310.643554688 102.826171875 262 162 262 c 6
 331.5 262 l 6
 404.25390625 262 463.5 202.75390625 463.5 130 c 6
 463.5 129.779296875 l 6
 463.5 57.126953125 404.1796875 -2 331.5 -2 c 6
 137 -2 l 6
 101.891601562 -2 69.931640625 11.80078125 46.25390625 34.25390625 c 5
 63.556640625 51.556640625 l 5
 82.6982421875 33.2724609375 108.51953125 22 137 22 c 6
 331.5 22 l 6
 390.677734375 22 438.5 70.6513671875 438.5 129.806640625 c 6
 438.5 130 l 6
 438.5 189.2421875 390.7421875 238 331.5 238 c 6
 162 238 l 6
 89.32421875 238 30 297.120117188 30 369.766601562 c 6
 30 370 l 6
 30 442.75390625 89.24609375 502 162 502 c 6
EndSplineSet
EndChar

StartChar: t
Encoding: 116 116 37
Width: 335
Flags: HMW
LayerCount: 2
Fore
SplineSet
155 750 m 5
 180 750 l 5
 180 500 l 5
 305 500 l 5
 305 476 l 5
 180 476 l 5
 180 0 l 5
 155 0 l 5
 155 476 l 5
 30 476 l 5
 30 500 l 5
 155 500 l 5
 155 750 l 5
EndSplineSet
EndChar

StartChar: u
Encoding: 117 117 38
Width: 856
Flags: HMW
LayerCount: 2
Fore
SplineSet
50 502 m 5
 75 502 l 5
 75 252 l 6
 75 126.631835938 176.631835938 24 302 24 c 6
 554.196289062 24 l 6
 679.474609375 24 781 126.697265625 781 252 c 6
 781 502 l 5
 806 502 l 5
 806 252 l 6
 806 112.903320312 693.303710938 0 554.236328125 0 c 6
 302 0 l 6
 162.82421875 0 50 112.82421875 50 252 c 6
 50 502 l 5
EndSplineSet
EndChar

StartChar: v
Encoding: 118 118 39
Width: 841
Flags: HMW
LayerCount: 2
Fore
SplineSet
30 500 m 1
 61.25 500 l 1
 420.625 37.833984375 l 1
 780 500 l 1
 811.25 500 l 1
 420.668945312 -2.775390625 l 1
 420.625 -2.833984375 l 1
 30 500 l 1
EndSplineSet
EndChar

StartChar: w
Encoding: 119 119 40
Width: 1560
Flags: HMWO
LayerCount: 2
Fore
SplineSet
30 500 m 1
 61.25 500 l 1
 420.625 38.833984375 l 1
 780 510 l 1
 780.10546875 509.853515625 l 1
 1139.375 38.833984375 l 1
 1498.75 500 l 1
 1530 500 l 1
 1139.41992188 -2.775390625 l 1
 1139.375 -2.833984375 l 1
 780 465.333984375 l 1
 420.669921875 -2.775390625 l 1
 420.625 -2.833984375 l 1
 30 500 l 1
EndSplineSet
EndChar

StartChar: x
Encoding: 120 120 41
Width: 659
Flags: HMW
LayerCount: 2
Fore
SplineSet
30.24609375 500 m 5
 67.841796875 500 l 5
 329.8203125 266.734375 l 5
 592.021484375 500 l 5
 629.6328125 500 l 5
 348.6171875 249.99609375 l 5
 629.38671875 0 l 5
 591.791015625 0 l 5
 329.8125 233.265625 l 5
 67.611328125 0 l 5
 30 0 l 5
 311.015625 250.00390625 l 5
 30.24609375 500 l 5
EndSplineSet
EndChar

StartChar: y
Encoding: 121 121 42
Width: 844
Flags: HMW
LayerCount: 2
Fore
SplineSet
30 500.30859375 m 1
 61.25 500.30859375 l 1
 419.458984375 22.697265625 l 1
 782.404296875 500.30859375 l 1
 814.689453125 500.30859375 l 1
 283.40625 -199.69140625 l 1
 250.462890625 -199.69140625 l 1
 403.732421875 2 l 1
 30 500.30859375 l 1
EndSplineSet
EndChar

StartChar: z
Encoding: 122 122 43
Width: 700
Flags: HMW
LayerCount: 2
Fore
SplineSet
56.677734375 500 m 5
 665.853515625 500 l 5
 103.35546875 25 l 5
 644.177734375 25 l 5
 644.177734375 0 l 5
 35 0 l 5
 597.498046875 475 l 5
 56.677734375 475 l 5
 56.677734375 500 l 5
EndSplineSet
EndChar

StartChar: O
Encoding: 79 79 44
Width: 1191
Flags: HMW
LayerCount: 2
Fore
SplineSet
407 752 m 2
 784.206054688 752 l 2
 992.174804688 752 1161 582.994140625 1161 375 c 2
 1161 374.758789062 l 2
 1161 166.899414062 992.133789062 -2 784.279296875 -2 c 2
 407 -2 l 2
 199.051757812 -2 30.09375 166.75 30 374.655273438 c 2
 30 375 l 2
 29.9072265625 583.063476562 198.936523438 752 407 752 c 2
407 728 m 2
 212.447265625 728 54.9267578125 569.552734375 55 375 c 2
 55 374.727539062 l 2
 55.0732421875 180.299804688 212.538085938 22 407 22 c 2
 784.276367188 22 l 2
 978.626953125 22 1136 180.418945312 1136 374.77734375 c 2
 1136 375 l 2
 1136 569.48828125 978.65625 728 784.193359375 728 c 2
 407 728 l 2
EndSplineSet
EndChar

StartChar: C
Encoding: 67 67 45
Width: 1080
Flags: HMW
LayerCount: 2
Fore
SplineSet
407 752 m 2
 784.20703125 752 l 2
 888.16796875 752 982.346679688 709.767578125 1050.54492188 641.544921875 c 1
 1033.22460938 624.224609375 l 1
 969.564453125 688.28515625 881.530273438 728 784.193359375 728 c 2
 407 728 l 2
 212.447265625 728 54.9267578125 569.552734375 55 375 c 2
 55 374.728515625 l 2
 55.0732421875 180.30078125 212.538085938 22 407 22 c 2
 784.27734375 22 l 2
 881.573242188 22 969.600585938 61.7041015625 1033.25585938 125.744140625 c 1
 1050.57617188 108.423828125 l 1
 982.37890625 40.2216796875 888.202148438 -2 784.279296875 -2 c 2
 407 -2 l 2
 199.051757812 -2 30.0927734375 166.750976562 30 374.65625 c 2
 30 375 l 2
 29.9072265625 583.063476562 198.936523438 752 407 752 c 2
EndSplineSet
EndChar

StartChar: D
Encoding: 68 68 46
Width: 923
Flags: HMW
LayerCount: 2
Fore
SplineSet
50 750 m 1
 518.5 750 l 2
 725.458984375 750 893.544921875 581.958984375 893.5 375 c 2
 893.5 374.860351562 l 2
 893.455078125 167.965820312 725.412109375 0 518.5 0 c 2
 50 0 l 1
 50 750 l 1
75 726 m 1
 75 24 l 1
 518.5 24 l 2
 711.897460938 24 868.4609375 181.470703125 868.5 374.849609375 c 2
 868.5 375 l 2
 868.5390625 568.447265625 711.947265625 726 518.5 726 c 2
 75 726 l 1
EndSplineSet
EndChar

StartChar: E
Encoding: 69 69 47
Width: 755
Flags: HMW
LayerCount: 2
Fore
SplineSet
50 750 m 5
 725 750 l 5
 725 725 l 5
 75 725 l 5
 75 387.5 l 5
 725 387.5 l 5
 725 362.5 l 5
 75 362.5 l 5
 75 25 l 5
 725 25 l 5
 725 0 l 5
 50 0 l 5
 50 750 l 5
EndSplineSet
EndChar

StartChar: F
Encoding: 70 70 48
Width: 755
Flags: HMW
LayerCount: 2
Fore
SplineSet
50 750 m 5
 725 750 l 5
 725 725 l 5
 75 725 l 5
 75 387.5 l 5
 725 387.5 l 5
 725 362.5 l 5
 75 362.5 l 5
 75 0 l 5
 50 0 l 5
 50 750 l 5
EndSplineSet
EndChar

StartChar: A
Encoding: 65 65 49
Width: 837
Flags: HMW
LayerCount: 2
Fore
SplineSet
418.9765625 751.951171875 m 1
 419.009765625 751.951171875 l 1
 807.953125 0 l 1
 780.001953125 0 l 1
 633.751953125 284.5 l 1
 202.201171875 284.5 l 1
 57.951171875 0 l 1
 30 0 l 1
 418.9765625 751.951171875 l 1
418.9765625 698.05078125 m 1
 215.201171875 308.5 l 1
 621.751953125 308.5 l 1
 418.9765625 698.05078125 l 1
EndSplineSet
EndChar

StartChar: G
Encoding: 71 71 50
Width: 1190
Flags: HMW
LayerCount: 2
Fore
SplineSet
406.90234375 752 m 2
 799 752 l 2
 903.03125 752 997.28125 709.765625 1065.5234375 641.5234375 c 1
 1048.20507812 624.205078125 l 1
 984.504882812 688.283203125 896.403320312 728 799 728 c 2
 406.90234375 728 l 2
 212.395507812 727.947265625 54.9716796875 569.51953125 55 375 c 2
 55 374.89453125 l 2
 55.0283203125 180.390625 212.483398438 22 407.00390625 22 c 2
 784.11328125 22 l 2
 974.5625 22 1135.79296875 173.844726562 1135.79296875 362.890625 c 2
 1135.79296875 363 l 1
 602.951171875 363 l 1
 602.951171875 387 l 1
 1160.8046875 387 l 1
 1160.8046875 363 l 1
 1154.45800781 160.51171875 988.099609375 -2 784.094726562 -2 c 2
 407 -2 l 2
 198.978515625 -2 30.0341796875 166.869140625 30 374.875 c 2
 30 375 l 2
 29.9658203125 583.030273438 198.883789062 751.947265625 406.90234375 752 c 2
EndSplineSet
EndChar

StartChar: H
Encoding: 72 72 51
Width: 862
Flags: HMW
LayerCount: 2
Fore
SplineSet
50 750 m 5
 75 750 l 5
 75 387 l 5
 787.5 387 l 5
 787.5 750 l 5
 812.5 750 l 5
 812.5 0 l 5
 787.5 0 l 5
 787.5 363 l 5
 75 363 l 5
 75 0 l 5
 50 0 l 5
 50 750 l 5
EndSplineSet
EndChar

StartChar: I
Encoding: 73 73 52
Width: 235
Flags: HMW
LayerCount: 2
Fore
SplineSet
30 750 m 1
 205 750 l 1
 205 726 l 1
 130 726 l 1
 130 24 l 1
 205 24 l 1
 205 0 l 1
 30 0 l 1
 30 24 l 1
 105 24 l 1
 105 726 l 1
 30 726 l 1
 30 750 l 1
EndSplineSet
EndChar

StartChar: L
Encoding: 76 76 53
Width: 755
Flags: HMW
LayerCount: 2
Fore
SplineSet
50 750 m 5
 75 750 l 5
 75 25 l 5
 725 25 l 5
 725 0 l 5
 50 0 l 5
 50 750 l 5
EndSplineSet
EndChar

StartChar: T
Encoding: 84 84 54
Width: 810
Flags: HMW
LayerCount: 2
Fore
SplineSet
30 750 m 5
 780 750 l 5
 780 726 l 5
 417.5 726 l 5
 417.5 0 l 5
 392.5 0 l 5
 392.5 726 l 5
 30 726 l 5
 30 750 l 5
EndSplineSet
EndChar

StartChar: Y
Encoding: 89 89 55
Width: 845
Flags: HMW
LayerCount: 2
Fore
SplineSet
30 750 m 5
 65.35546875 750 l 5
 422.677734375 392.677734375 l 5
 780 750 l 5
 815.35546875 750 l 5
 435.177734375 369.822265625 l 5
 435.177734375 0 l 5
 410.177734375 0 l 5
 410.177734375 369.822265625 l 5
 30 750 l 5
EndSplineSet
EndChar

StartChar: P
Encoding: 80 80 56
Width: 756
Flags: HMW
LayerCount: 2
Fore
SplineSet
50 750 m 5
 522.25 750 l 6
 629.668945312 750 716.764648438 662.918945312 716.75 555.5 c 6
 716.75 555.42578125 l 6
 716.735351562 448.041015625 629.64453125 363 522.25 363 c 6
 75 363 l 5
 75 0 l 5
 50 0 l 5
 50 750 l 5
75 726 m 5
 75 387 l 5
 522.25 387 l 6
 615.827148438 387 691.723632812 461.831054688 691.75 555.39453125 c 6
 691.75 555.5 l 6
 691.776367188 649.112304688 615.862304688 726 522.25 726 c 6
 75 726 l 5
EndSplineSet
EndChar

StartChar: Z
Encoding: 90 90 57
Width: 840
Flags: HMW
LayerCount: 2
Fore
SplineSet
39.115234375 750 m 5
 810.0625 750 l 5
 90.0625 25 l 5
 800.03125 25 l 5
 800.03125 0 l 5
 30 0 l 5
 750 725 l 5
 39.115234375 725 l 5
 39.115234375 750 l 5
EndSplineSet
EndChar

StartChar: J
Encoding: 74 74 58
Width: 528
Flags: HMW
LayerCount: 2
Fore
SplineSet
453.134765625 750 m 1
 478.134765625 750 l 1
 478.134765625 250 l 2
 478.134765625 111.021484375 365.240234375 -2 226.279296875 -2 c 2
 208.134765625 -2 l 2
 138.62109375 -2 75.62109375 26.244140625 30 71.865234375 c 1
 47.3203125 89.185546875 l 1
 88.400390625 47.7275390625 145.248046875 22 208.134765625 22 c 2
 226.236328125 22 l 2
 351.705078125 22 453.134765625 124.517578125 453.134765625 250 c 2
 453.134765625 750 l 1
EndSplineSet
EndChar

StartChar: K
Encoding: 75 75 59
Width: 830
Flags: HMW
LayerCount: 2
Fore
SplineSet
50 750 m 5
 75 750 l 5
 75 308.98828125 l 5
 754.099609375 750 l 5
 800 750 l 5
 222.55078125 375 l 5
 800 0 l 5
 754.09765625 0 l 5
 199.599609375 360.095703125 l 5
 75 279.1796875 l 5
 75 0 l 5
 50 0 l 5
 50 750 l 5
EndSplineSet
EndChar

StartChar: V
Encoding: 86 86 60
Width: 838
Flags: HMW
LayerCount: 2
Fore
SplineSet
30 750 m 5
 58.13671875 750 l 5
 419.068359375 51.236328125 l 5
 780 750 l 5
 808.13671875 750 l 5
 419.568359375 -3 l 5
 418.568359375 -3 l 5
 30 750 l 5
EndSplineSet
EndChar

StartChar: W
Encoding: 87 87 61
Width: 1560
Flags: HMW
LayerCount: 2
Fore
SplineSet
30 750 m 5
 58.13671875 750 l 5
 419.068359375 51.236328125 l 5
 779.900390625 752 l 5
 780.099609375 752 l 5
 1140.93164062 51.236328125 l 5
 1501.86328125 750 l 5
 1530 750 l 5
 1141.43164062 -3 l 5
 1140.43164062 -3 l 5
 780 697.474609375 l 5
 419.568359375 -3 l 5
 418.568359375 -3 l 5
 30 750 l 5
EndSplineSet
EndChar

StartChar: M
Encoding: 77 77 62
Width: 1125
Flags: HMW
LayerCount: 2
Fore
SplineSet
50 755 m 1
 50.099609375 755 l 1
 542.5 39.42578125 l 1
 1034.90039062 755 l 1
 1035 755 l 1
 1035 0 l 1
 1010 0 l 1
 1010 677.17578125 l 1
 542.599609375 -3 l 1
 542.400390625 -3 l 1
 75 677.17578125 l 1
 75 0 l 1
 50 0 l 1
 50 755 l 1
EndSplineSet
EndChar

StartChar: N
Encoding: 78 78 63
Width: 875
Flags: HMW
LayerCount: 2
Fore
SplineSet
50 753 m 5
 50.1484375 753 l 5
 800 54.708984375 l 5
 800 750 l 5
 825 750 l 5
 825 -3 l 5
 824.8125 -3 l 5
 75 695.291015625 l 5
 75 0 l 5
 50 0 l 5
 50 753 l 5
EndSplineSet
EndChar

StartChar: U
Encoding: 85 85 64
Width: 1000
Flags: HM
LayerCount: 2
Fore
SplineSet
50 750 m 1
 75 750 l 1
 75 373 l 2
 75 179.552734375 231.552734375 22 425 22 c 2
 575 22 l 2
 768.447265625 22 925 179.552734375 925 373 c 2
 925 750 l 1
 950 750 l 1
 950 373 l 2
 950 166.041015625 781.958984375 -2 575 -2 c 2
 425 -2 l 2
 218.041015625 -2 50 166.041015625 50 373 c 2
 50 750 l 1
EndSplineSet
EndChar

StartChar: S
Encoding: 83 83 65
Width: 718
Flags: HMW
LayerCount: 2
Fore
SplineSet
224.5 752 m 2
 519 752 l 2
 572.635742188 752 621.260742188 730.192382812 656.4765625 694.9765625 c 1
 639.15625 677.65625 l 1
 608.482421875 708.708007812 566.006835938 728 519 728 c 2
 224.5 728 l 2
 130.739257812 728 55 651.260742188 55 557.5 c 2
 55 557.309570312 l 2
 55 463.635742188 130.802734375 387 224.5 387 c 2
 494 387 l 2
 601.271484375 387 688.5 299.771484375 688.5 192.5 c 2
 688.5 192.400390625 l 2
 688.5 85.1748046875 601.23828125 -2 494 -2 c 2
 199.5 -2 l 2
 145.864257812 -2 97.2392578125 19.8076171875 62.0234375 55.0234375 c 1
 79.34375 72.34375 l 1
 110.017578125 41.2919921875 152.493164062 22 199.5 22 c 2
 494 22 l 2
 587.72265625 22 663.5 98.6787109375 663.5 192.387695312 c 2
 663.5 192.5 l 2
 663.5 286.260742188 587.760742188 363 494 363 c 2
 224.5 363 l 2
 117.287109375 363 30 450.133789062 30 557.325195312 c 2
 30 557.5 l 2
 30 664.771484375 117.228515625 752 224.5 752 c 2
EndSplineSet
EndChar

StartChar: dollar
Encoding: 36 36 66
Width: 718
Flags: HMW
LayerCount: 2
Fore
SplineSet
346.75 800 m 1
 371.75 800 l 1
 371.75 752 l 1
 529 752 l 2
 582.635742188 752 631.260742188 730.192382812 666.4765625 694.9765625 c 1
 649.15625 677.65625 l 1
 618.482421875 708.708007812 576.006835938 728 529 728 c 2
 371.75 728 l 1
 371.75 387 l 1
 494 387 l 2
 601.271484375 387 688.5 299.771484375 688.5 192.5 c 2
 688.5 192.400390625 l 2
 688.5 85.1748046875 601.23828125 -2 494 -2 c 2
 371.75 -2 l 1
 371.75 -50 l 1
 346.75 -50 l 1
 346.75 -2 l 1
 189.5 -2 l 2
 135.864257812 -2 87.2392578125 19.8076171875 52.0234375 55.0234375 c 1
 69.34375 72.34375 l 1
 100.017578125 41.2919921875 142.493164062 22 189.5 22 c 2
 346.75 22 l 1
 346.75 363 l 1
 224.5 363 l 2
 117.287109375 363 30 450.1328125 30 557.32421875 c 2
 30 557.5 l 2
 30 664.771484375 117.228515625 752 224.5 752 c 2
 346.75 752 l 1
 346.75 800 l 1
346.75 728 m 1
 224.5 728 l 2
 130.739257812 728 55 651.260742188 55 557.5 c 2
 55 557.30859375 l 2
 55 463.634765625 130.802734375 387 224.5 387 c 2
 346.75 387 l 1
 346.75 728 l 1
371.75 363 m 1
 371.75 22 l 1
 494 22 l 2
 587.72265625 22 663.5 98.6796875 663.5 192.388671875 c 2
 663.5 192.5 l 2
 663.5 286.260742188 587.760742188 363 494 363 c 2
 371.75 363 l 1
EndSplineSet
EndChar

StartChar: percent
Encoding: 37 37 67
Width: 827
Flags: HMW
LayerCount: 2
Fore
SplineSet
780 751.921875 m 1
 797.51171875 734.078125 l 1
 47.51171875 -1.921875 l 1
 30 15.921875 l 1
 780 751.921875 l 1
219.755859375 752 m 0
 302.451171875 752 369.755859375 684.694335938 369.755859375 602 c 0
 369.755859375 519.305664062 302.451171875 452 219.755859375 452 c 0
 137.0625 452 69.755859375 519.305664062 69.755859375 602 c 0
 69.755859375 684.694335938 137.0625 752 219.755859375 752 c 0
219.755859375 728 m 0
 150.572265625 728 94.755859375 671.18359375 94.755859375 602 c 0
 94.755859375 532.81640625 150.572265625 476 219.755859375 476 c 0
 288.939453125 476 344.755859375 532.81640625 344.755859375 602 c 0
 344.755859375 671.18359375 288.939453125 728 219.755859375 728 c 0
602.755859375 298 m 4
 685.451171875 298 752.755859375 230.694335938 752.755859375 148 c 4
 752.755859375 65.3056640625 685.451171875 -2 602.755859375 -2 c 4
 520.0625 -2 452.755859375 65.3056640625 452.755859375 148 c 4
 452.755859375 230.694335938 520.0625 298 602.755859375 298 c 4
602.755859375 274 m 4
 533.572265625 274 477.755859375 217.18359375 477.755859375 148 c 4
 477.755859375 78.81640625 533.572265625 22 602.755859375 22 c 4
 671.939453125 22 727.755859375 78.81640625 727.755859375 148 c 4
 727.755859375 217.18359375 671.939453125 274 602.755859375 274 c 4
EndSplineSet
EndChar

StartChar: ampersand
Encoding: 38 38 68
Width: 852
Flags: HMW
LayerCount: 2
Fore
SplineSet
302 752 m 6
 504 752 l 6
 559.40234375 752 607.891601562 721.788085938 633.8671875 676.98046875 c 5
 612.431640625 664.603515625 l 5
 590.8828125 702.380859375 550.456054688 728 504 728 c 6
 302 728 l 6
 232.81640625 728 177 671.18359375 177 602 c 6
 177 601.866210938 l 6
 177 562.905273438 194.784179688 527.87890625 222.640625 504.728515625 c 6
 715.615234375 91.005859375 l 5
 782.810546875 163.599609375 l 5
 801.48046875 147.935546875 l 5
 734.310546875 75.31640625 l 5
 802.083984375 18.439453125 l 5
 786.61328125 0.001953125 l 5
 717.255859375 58.158203125 l 5
 673.256835938 20.6630859375 616.248046875 -2 554 -2 c 6
 302 -2 l 6
 163.018554688 -2 50 110.896484375 50 249.860351562 c 6
 50 250 l 6
 50 356.223632812 115.955078125 447.2265625 209.087890625 484.26171875 c 5
 206.173828125 486.705078125 l 6
 173.115234375 514.2265625 152 555.65625 152 601.915039062 c 6
 152 602 l 6
 152 684.694335938 219.305664062 752 302 752 c 6
230.3984375 466.392578125 m 5
 140.049804688 436.200195312 75 350.487304688 75 250 c 6
 75 249.827148438 l 6
 75 124.389648438 176.541015625 22 302 22 c 6
 554 22 l 6
 608.836914062 22 659.08203125 41.5673828125 698.28515625 74.064453125 c 5
 230.3984375 466.392578125 l 5
EndSplineSet
EndChar

StartChar: quotesingle
Encoding: 39 39 69
Width: 101
Flags: HMW
LayerCount: 2
Fore
SplineSet
38 550 m 1
 38 750 l 1
 63 750 l 1
 63 550 l 1
 38 550 l 1
EndSplineSet
EndChar

StartChar: parenleft
Encoding: 40 40 70
Width: 390
Flags: HMW
LayerCount: 2
Fore
SplineSet
334.955078125 800 m 1
 344.173828125 778.2421875 l 1
 288.657226562 754.3984375 237.610351562 719.983398438 194.125 676.498046875 c 0
 105.041992188 587.415039062 55 465.60546875 55 339.623046875 c 0
 55 213.640625 105.041992188 91.8310546875 194.125 2.748046875 c 0
 241.915039062 -45.0419921875 298.837890625 -81.875 360.7890625 -105.76171875 c 1
 352.427734375 -127.76953125 l 1
 287.00390625 -102.912109375 226.887695312 -64.3701171875 176.447265625 -13.9296875 c 0
 82.6826171875 79.8349609375 30 207.01953125 30 339.623046875 c 0
 30 472.2265625 82.6826171875 599.411132812 176.447265625 693.17578125 c 0
 222.364257812 739.092773438 276.297851562 775.149414062 334.955078125 800 c 1
EndSplineSet
EndChar

StartChar: parenright
Encoding: 41 41 71
Width: 390
Flags: HMW
LayerCount: 2
Fore
SplineSet
55.833984375 800 m 1
 46.615234375 778.2421875 l 1
 102.131835938 754.3984375 153.178710938 719.983398438 196.6640625 676.498046875 c 0
 285.747070312 587.415039062 335.7890625 465.60546875 335.7890625 339.623046875 c 0
 335.7890625 213.640625 285.747070312 91.8310546875 196.6640625 2.748046875 c 0
 148.874023438 -45.0419921875 91.951171875 -81.875 30 -105.76171875 c 1
 38.361328125 -127.76953125 l 1
 103.78515625 -102.912109375 163.901367188 -64.3701171875 214.341796875 -13.9296875 c 0
 308.106445312 79.8349609375 360.7890625 207.01953125 360.7890625 339.623046875 c 0
 360.7890625 472.2265625 308.106445312 599.411132812 214.341796875 693.17578125 c 0
 168.424804688 739.092773438 114.491210938 775.149414062 55.833984375 800 c 1
EndSplineSet
EndChar

StartChar: asterisk
Encoding: 42 42 72
Width: 353
Flags: HMW
LayerCount: 2
Fore
SplineSet
164.021484375 750 m 5
 189.021484375 750 l 5
 189.021484375 617.205078125 l 5
 315.31640625 658.240234375 l 5
 323.04296875 634.46484375 l 5
 196.748046875 593.427734375 l 5
 274.802734375 485.994140625 l 5
 254.576171875 471.30078125 l 5
 176.521484375 578.732421875 l 5
 98.466796875 471.30078125 l 5
 78.240234375 485.994140625 l 5
 156.294921875 593.427734375 l 5
 30 634.46484375 l 5
 37.7265625 658.240234375 l 5
 164.021484375 617.205078125 l 5
 164.021484375 750 l 5
EndSplineSet
EndChar

StartChar: plus
Encoding: 43 43 73
Width: 660
Flags: HMW
LayerCount: 2
Fore
SplineSet
318 675 m 1
 342 675 l 1
 342 387 l 1
 630 387 l 1
 630 363 l 1
 342 363 l 1
 342 75 l 1
 318 75 l 1
 318 363 l 1
 30 363 l 1
 30 387 l 1
 318 387 l 1
 318 675 l 1
EndSplineSet
EndChar

StartChar: comma
Encoding: 44 44 74
Width: 110
Flags: HMW
LayerCount: 2
Fore
SplineSet
30.65234375 23.0458984375 m 0
 30.65234375 36.7880859375 41.7431640625 47.9541015625 55.6015625 48 c 0
 69.458984375 48.0458984375 80.65234375 36.853515625 80.65234375 23.0458984375 c 0
 80.65234375 20.1298828125 80.1416015625 17.2353515625 79.14453125 14.4951171875 c 2
 53.4921875 -55.9814453125 l 1
 30 -47.4306640625 l 1
 47.1015625 -0.4462890625 l 1
 37.2255859375 3.1484375 30.65234375 12.5361328125 30.65234375 23.0458984375 c 0
EndSplineSet
EndChar

StartChar: period
Encoding: 46 46 75
Width: 110
Flags: HMW
LayerCount: 2
Fore
SplineSet
80 23 m 4
 80 9.2021484375 68.7978515625 -2 55 -2 c 4
 41.2021484375 -2 30 9.2021484375 30 23 c 4
 30 36.7978515625 41.2021484375 48 55 48 c 4
 68.7978515625 48 80 36.7978515625 80 23 c 4
EndSplineSet
EndChar

StartChar: hyphen
Encoding: 45 45 76
Width: 585
Flags: HMW
LayerCount: 2
Fore
SplineSet
30 387 m 5
 555 387 l 5
 555 363 l 5
 30 363 l 5
 30 387 l 5
EndSplineSet
EndChar

StartChar: slash
Encoding: 47 47 77
Width: 462
Flags: HMW
LayerCount: 2
Fore
SplineSet
405.001953125 750 m 5
 432.953125 750 l 5
 57.951171875 0 l 5
 30 0 l 5
 405.001953125 750 l 5
EndSplineSet
EndChar

StartChar: colon
Encoding: 58 58 78
Width: 110
Flags: HMW
LayerCount: 2
Fore
SplineSet
80 23 m 4
 80 9.2021484375 68.7978515625 -2 55 -2 c 4
 41.2021484375 -2 30 9.2021484375 30 23 c 4
 30 36.7978515625 41.2021484375 48 55 48 c 4
 68.7978515625 48 80 36.7978515625 80 23 c 4
80 477 m 4
 80 463.202148438 68.7978515625 452 55 452 c 4
 41.2021484375 452 30 463.202148438 30 477 c 4
 30 490.797851562 41.2021484375 502 55 502 c 4
 68.7978515625 502 80 490.797851562 80 477 c 4
EndSplineSet
EndChar

StartChar: semicolon
Encoding: 59 59 79
Width: 110
Flags: HMW
LayerCount: 2
Fore
SplineSet
80.05078125 477.045898438 m 0
 80.05078125 463.248046875 68.8486328125 452.045898438 55.05078125 452.045898438 c 0
 41.2529296875 452.045898438 30.05078125 463.248046875 30.05078125 477.045898438 c 0
 30.05078125 490.84375 41.2529296875 502.045898438 55.05078125 502.045898438 c 0
 68.8486328125 502.045898438 80.05078125 490.84375 80.05078125 477.045898438 c 0
30.05078125 23.0458984375 m 0
 30.05078125 36.7880859375 41.1416015625 47.953125 55 48 c 0
 68.857421875 48.0458984375 80.05078125 36.8525390625 80.05078125 23.0458984375 c 0
 80.05078125 20.1298828125 79.5400390625 17.2353515625 78.54296875 14.4951171875 c 2
 52.890625 -55.9814453125 l 1
 29.3984375 -47.4306640625 l 1
 46.5 -0.4462890625 l 1
 36.6240234375 3.1484375 30.05078125 12.5361328125 30.05078125 23.0458984375 c 0
EndSplineSet
EndChar

StartChar: less
Encoding: 60 60 81
Width: 630
Flags: HMW
LayerCount: 2
Fore
SplineSet
592.5 586 m 1
 600.5390625 563.38671875 l 1
 69.83984375 374.693359375 l 1
 600.5390625 186 l 1
 592.5 163.38671875 l 1
 30 363.38671875 l 1
 30 386 l 1
 592.5 586 l 1
EndSplineSet
EndChar

StartChar: greater
Encoding: 62 62 82
Width: 630
Flags: HMW
LayerCount: 2
Fore
SplineSet
38.0390625 586 m 5
 30 563.38671875 l 5
 560.69921875 374.693359375 l 5
 30 186 l 5
 38.0390625 163.38671875 l 5
 600.5390625 363.38671875 l 5
 600.5390625 386 l 5
 38.0390625 586 l 5
EndSplineSet
EndChar

StartChar: equal
Encoding: 61 61 83
Width: 660
Flags: HMW
LayerCount: 2
Fore
SplineSet
30 462 m 1
 630 462 l 1
 630 438 l 1
 30 438 l 1
 30 462 l 1
30 313 m 1
 630 313 l 1
 630 289 l 1
 30 289 l 1
 30 313 l 1
EndSplineSet
EndChar

StartChar: question
Encoding: 63 63 84
Width: 659
Flags: HMW
LayerCount: 2
Fore
SplineSet
229.94921875 752 m 6
 430.08203125 752 l 6
 540.330078125 752 629.94921875 662.264648438 629.94921875 552 c 6
 629.94921875 551.865234375 l 6
 629.94921875 478.0546875 589.701171875 413.478515625 530.03125 378.880859375 c 6
 429.935546875 312.82421875 l 6
 377.794921875 282.259765625 342.80078125 242.571289062 342.80078125 177.822265625 c 6
 342.8515625 176.177734375 l 5
 317.8515625 176.177734375 l 5
 317.80078125 177.822265625 l 6
 317.80078125 251.728515625 358.065429688 299.196289062 417.814453125 333.818359375 c 5
 517.890625 399.86328125 l 6
 569.961914062 430.404296875 604.94921875 487.204101562 604.94921875 551.865234375 c 6
 604.94921875 552 l 6
 604.94921875 648.76171875 526.806640625 728 430.05859375 728 c 6
 229.94921875 728 l 6
 134.520507812 728 57.169921875 651.021484375 55 556.095703125 c 5
 30 556.095703125 l 5
 32.1884765625 664.51953125 121.009765625 752 229.94921875 752 c 6
304.974609375 23 m 4
 304.974609375 36.7978515625 316.176757812 48 329.974609375 48 c 4
 343.772460938 48 354.974609375 36.7978515625 354.974609375 23 c 4
 354.974609375 9.2021484375 343.772460938 -2 329.974609375 -2 c 4
 316.176757812 -2 304.974609375 9.2021484375 304.974609375 23 c 4
EndSplineSet
EndChar

StartChar: at
Encoding: 64 64 85
Width: 1361
Flags: HMW
LayerCount: 2
Fore
SplineSet
467 762 m 2
 894.147460938 762 l 2
 1007.33691406 762 1115.89550781 716.975585938 1195.93554688 636.935546875 c 0
 1276.00976562 556.861328125 1321 448.2421875 1321 335 c 2
 1321 134.572265625 l 2
 1321 64.6015625 1264.02636719 7.572265625 1194.06347656 7.572265625 c 2
 1087.25 7.572265625 l 2
 1017.2578125 7.572265625 960.25 64.580078125 960.25 134.572265625 c 2
 960.25 239.296875 l 1
 925.865234375 176.959960938 859.516601562 132.572265625 783.422851562 132.572265625 c 2
 569.75 132.572265625 l 2
 458.393554688 132.572265625 367.75 223.06640625 367.75 334.401367188 c 2
 367.75 334.572265625 l 2
 367.75 445.985351562 458.3359375 536.572265625 569.75 536.572265625 c 2
 783.403320312 536.572265625 l 2
 859.504882812 536.572265625 925.862304688 492.1875 960.25 429.845703125 c 1
 960.25 534.572265625 l 1
 985.25 534.572265625 l 1
 985.25 134.572265625 l 2
 985.25 78.0908203125 1030.76855469 31.572265625 1087.25 31.572265625 c 2
 1194.11132812 31.572265625 l 2
 1250.54101562 31.572265625 1296 78.1279296875 1296 134.572265625 c 2
 1296 335 l 2
 1296 441.622070312 1253.65039062 544.865234375 1178.2578125 620.2578125 c 0
 1102.88378906 695.631835938 1000.67382812 739 894.08203125 739 c 2
 467 739 l 2
 360.377929688 739 258.134765625 695.650390625 182.7421875 620.2578125 c 0
 107.349609375 544.865234375 65 441.622070312 65 335 c 2
 65 334.83984375 l 2
 65 228.274414062 107.38671875 125.09765625 182.7421875 49.7421875 c 0
 258.134765625 -25.650390625 360.377929688 -69 467 -69 c 1
 467 -92 l 1
 353.7578125 -92 245.138671875 -47.009765625 165.064453125 33.064453125 c 0
 85.015625 113.11328125 40 221.6875 40 334.890625 c 2
 40 335 l 2
 40 448.2421875 84.990234375 556.861328125 165.064453125 636.935546875 c 0
 245.138671875 717.009765625 353.7578125 762 467 762 c 2
569.75 513.572265625 m 2
 471.84765625 513.572265625 392.75 432.474609375 392.75 334.572265625 c 2
 392.75 334.4296875 l 2
 392.75 236.590820312 471.89453125 155.572265625 569.75 155.572265625 c 2
 783.377929688 155.572265625 l 2
 881.133789062 155.572265625 960.25 236.56640625 960.25 334.30859375 c 2
 960.25 334.572265625 l 2
 960.25 432.419921875 881.241210938 513.572265625 783.4140625 513.572265625 c 2
 569.75 513.572265625 l 2
EndSplineSet
EndChar

StartChar: backslash
Encoding: 92 92 86
Width: 462
Flags: HMW
LayerCount: 2
Fore
SplineSet
57.951171875 750 m 5
 30 750 l 5
 405.001953125 0 l 5
 432.953125 0 l 5
 57.951171875 750 l 5
EndSplineSet
EndChar

StartChar: bracketleft
Encoding: 91 91 87
Width: 310
Flags: HMW
LayerCount: 2
Fore
SplineSet
30 800 m 1
 280 800 l 1
 280 776 l 1
 55 776 l 1
 55 -101 l 1
 280 -101 l 1
 280 -125 l 1
 30 -125 l 1
 30 800 l 1
EndSplineSet
EndChar

StartChar: bracketright
Encoding: 93 93 88
Width: 310
Flags: HMW
LayerCount: 2
Fore
SplineSet
280 800 m 1
 30 800 l 1
 30 776 l 1
 255 776 l 1
 255 -101 l 1
 30 -101 l 1
 30 -125 l 1
 280 -125 l 1
 280 800 l 1
EndSplineSet
EndChar

StartChar: asciicircum
Encoding: 94 94 89
Width: 656
Flags: HMW
LayerCount: 2
Fore
SplineSet
319.083984375 750 m 5
 337.447265625 750 l 5
 626.53125 437.5 l 5
 592.5 437.5 l 5
 328.265625 723.578125 l 5
 64.03125 437.5 l 5
 30 437.5 l 5
 319.083984375 750 l 5
EndSplineSet
EndChar

StartChar: underscore
Encoding: 95 95 90
Width: 660
Flags: HMW
LayerCount: 2
Fore
SplineSet
30 -25 m 1
 630 -25 l 1
 630 -49 l 1
 30 -49 l 1
 30 -25 l 1
EndSplineSet
EndChar

StartChar: grave
Encoding: 96 96 91
Width: 154
Flags: HMW
LayerCount: 2
Fore
SplineSet
30 750 m 1
 58.8671875 750 l 1
 124.3359375 600 l 1
 105.46875 600 l 1
 30 750 l 1
EndSplineSet
EndChar

StartChar: bar
Encoding: 124 124 92
Width: 125
Flags: HW
LayerCount: 2
Fore
SplineSet
50 800 m 1
 75 800 l 1
 75 -125 l 1
 50 -125 l 1
 50 800 l 1
EndSplineSet
EndChar

StartChar: braceleft
Encoding: 123 123 93
Width: 335
Flags: HW
LayerCount: 2
Fore
SplineSet
305 800 m 1
 305 776 l 1
 235.81640625 776 180 719.18359375 180 650 c 2
 180 475.5 l 2
 180 413.6484375 142.344726562 360.41015625 88.76171875 337.5 c 1
 142.344726562 314.58984375 180 261.3515625 180 199.5 c 2
 180 25 l 2
 180 -44.18359375 235.81640625 -101 305 -101 c 1
 305 -125 l 1
 222.305664062 -125 155 -57.6943359375 155 25 c 2
 155 199.5 l 2
 155 268.68359375 99.18359375 325.5 30 325.5 c 1
 30 349.5 l 1
 99.18359375 349.5 155 406.31640625 155 475.5 c 2
 155 650 l 2
 155 732.694335938 222.305664062 800 305 800 c 1
EndSplineSet
EndChar

StartChar: braceright
Encoding: 125 125 94
Width: 335
Flags: HW
LayerCount: 2
Fore
SplineSet
30 800 m 1
 30 776 l 1
 99.18359375 776 155 719.18359375 155 650 c 2
 155 475.5 l 2
 155 413.6484375 192.655273438 360.41015625 246.23828125 337.5 c 1
 192.655273438 314.58984375 155 261.3515625 155 199.5 c 2
 155 25 l 2
 155 -44.18359375 99.18359375 -101 30 -101 c 1
 30 -125 l 1
 112.694335938 -125 180 -57.6943359375 180 25 c 2
 180 199.5 l 2
 180 268.68359375 235.81640625 325.5 305 325.5 c 1
 305 349.5 l 1
 235.81640625 349.5 180 406.31640625 180 475.5 c 2
 180 650 l 2
 180 732.694335938 112.694335938 800 30 800 c 1
EndSplineSet
EndChar

StartChar: asciitilde
Encoding: 126 126 95
Width: 678
Flags: HW
LayerCount: 2
Fore
SplineSet
183.112304688 436.609375 m 0
 244.93359375 442.017578125 303.16796875 421.794921875 347.297851562 384.764648438 c 0
 386.541015625 351.487304688 438.428710938 333.234375 493.647460938 338.065429688 c 0
 548.866210938 342.895507812 596.796875 369.881835938 629.665039062 409.46875 c 1
 648.428710938 393.723632812 l 1
 611.3984375 349.592773438 557.561523438 319.565429688 495.739257812 314.15625 c 0
 433.91796875 308.748046875 375.68359375 328.970703125 331.553710938 366.000976562 c 0
 292.310546875 399.278320312 240.422851562 417.53125 185.204101562 412.700195312 c 0
 129.985351562 407.870117188 82.0546875 380.883789062 49.1865234375 341.296875 c 1
 30.4228515625 357.041992188 l 1
 67.453125 401.172851562 121.290039062 431.200195312 183.112304688 436.609375 c 0
EndSplineSet
EndChar

StartChar: exclamdown
Encoding: 161 161 96
Width: 150
Flags: HW
LayerCount: 2
Fore
SplineSet
62.5 425 m 5
 62.5 -150 l 5
 87.5 -150 l 5
 87.5 425 l 5
 62.5 425 l 5
50 577 m 4
 50 563.193359375 61.193359375 552 75 552 c 4
 88.806640625 552 100 563.193359375 100 577 c 4
 100 590.806640625 88.806640625 602 75 602 c 4
 61.193359375 602 50 590.806640625 50 577 c 4
EndSplineSet
EndChar

StartChar: questiondown
Encoding: 191 191 97
Width: 659
Flags: HW
LayerCount: 2
Fore
SplineSet
430 -152 m 2
 229.8671875 -152 l 2
 119.619140625 -152 30 -62.2646484375 30 48 c 2
 30 48.134765625 l 2
 30 121.9453125 70.248046875 186.521484375 129.91796875 221.119140625 c 2
 230.013671875 287.17578125 l 2
 282.154296875 317.740234375 317.1484375 357.428710938 317.1484375 422.177734375 c 2
 317.09765625 423.822265625 l 1
 342.09765625 423.822265625 l 1
 342.1484375 422.177734375 l 2
 342.1484375 348.271484375 301.883789062 300.803710938 242.134765625 266.181640625 c 1
 142.05859375 200.13671875 l 2
 89.9873046875 169.595703125 55 112.795898438 55 48.134765625 c 2
 55 48 l 2
 55 -48.76171875 133.142578125 -128 229.890625 -128 c 2
 430 -128 l 2
 525.428710938 -128 602.779296875 -51.021484375 604.94921875 43.904296875 c 1
 629.94921875 43.904296875 l 1
 627.760742188 -64.51953125 538.939453125 -152 430 -152 c 2
354.974609375 577 m 0
 354.974609375 563.202148438 343.772460938 552 329.974609375 552 c 0
 316.176757812 552 304.974609375 563.202148438 304.974609375 577 c 0
 304.974609375 590.797851562 316.176757812 602 329.974609375 602 c 0
 343.772460938 602 354.974609375 590.797851562 354.974609375 577 c 0
EndSplineSet
EndChar

StartChar: uni00AD
Encoding: 173 173 98
Width: 510
Flags: HW
LayerCount: 2
Fore
SplineSet
30 387 m 1
 480 387 l 1
 480 363 l 1
 30 363 l 1
 30 387 l 1
EndSplineSet
EndChar

StartChar: brokenbar
Encoding: 166 166 99
Width: 125
Flags: HW
LayerCount: 2
Fore
SplineSet
50 800 m 1
 75 800 l 1
 75 412.5 l 1
 50 412.5 l 1
 50 800 l 1
50 262.5 m 1
 75 262.5 l 1
 75 -125 l 1
 50 -125 l 1
 50 262.5 l 1
EndSplineSet
EndChar

StartChar: cent
Encoding: 162 162 100
Width: 740
Flags: HW
LayerCount: 2
Fore
SplineSet
394.400390625 690 m 1
 419.400390625 690 l 1
 419.400390625 590 l 1
 532 590 l 2
 601.607421875 590 664.624023438 561.776367188 710.23046875 516.150390625 c 1
 692.802734375 498.72265625 l 1
 651.698242188 540.21875 594.828125 566 532 566 c 2
 419.400390625 566 l 1
 419.400390625 110 l 1
 532.08984375 110 l 2
 594.84765625 110 651.655273438 135.744140625 692.734375 177.185546875 c 1
 710.16796875 159.751953125 l 1
 664.583984375 114.185546875 601.62890625 86 532.099609375 86 c 2
 419.400390625 86 l 1
 419.400390625 -14 l 1
 394.400390625 -14 l 1
 394.400390625 86 l 1
 282 86 l 2
 142.854492188 86 30.025390625 198.772460938 30 337.90625 c 2
 30 338 l 2
 29.9755859375 477.109375 142.715820312 590 281.80078125 590 c 2
 394.400390625 590 l 1
 394.400390625 690 l 1
394.400390625 566 m 1
 281.439453125 566 l 2
 156.290039062 565.69140625 55 463.150390625 55 338 c 2
 55 337.888671875 l 2
 55.0302734375 212.5703125 156.668945312 110 282 110 c 2
 394.400390625 110 l 1
 394.400390625 566 l 1
EndSplineSet
EndChar

StartChar: sterling
Encoding: 163 163 101
Width: 797
Flags: HW
LayerCount: 2
Fore
SplineSet
252.900390625 752 m 6
 498.734375 752 l 6
 601.291015625 752 687.778320312 682.322265625 713.594726562 587.853515625 c 5
 689.526367188 581.404296875 l 5
 666.676757812 665.598632812 590.05859375 728 498.79296875 728 c 6
 252.900390625 728 l 6
 143.455078125 728 55 638.544921875 55 529.099609375 c 6
 55 529.015625 l 6
 55 460.870117188 89.3525390625 400.489257812 141.67578125 364.6328125 c 4
 148.52734375 359.985351562 155.076171875 354.923828125 161.296875 349.5 c 5
 575.682617188 349.5 l 5
 575.682617188 325.5 l 5
 184.630859375 325.5 l 5
 212.907226562 291.17578125 230 247.408203125 230 199.5 c 6
 230 199.381835938 l 6
 230 123.5546875 187.528320312 57.720703125 125.166015625 24 c 5
 625.682617188 24 l 6
 674.208984375 24 718.05859375 43.9072265625 749.727539062 75.955078125 c 5
 767.047851562 58.634765625 l 5
 730.836914062 22.423828125 680.836914062 0 625.682617188 0 c 6
 30 0 l 5
 30 24 l 5
 126.756835938 24 205 102.634765625 205 199.376953125 c 6
 205 199.5 l 6
 205 249.005859375 184.306640625 293.561523438 151.2890625 325.5 c 5
 30 325.5 l 5
 30 349.5 l 5
 121.0234375 349.5 l 5
 120.969726562 349.540039062 120.915039062 349.580078125 120.861328125 349.620117188 c 4
 65.8154296875 390.212890625 30 455.474609375 30 528.9921875 c 6
 30 529.099609375 l 6
 30 652.055664062 129.944335938 752 252.900390625 752 c 6
EndSplineSet
EndChar

StartChar: currency
Encoding: 164 164 102
Width: 744
Flags: HW
LayerCount: 2
Fore
SplineSet
47.677734375 568 m 1
 109.859375 505.818359375 l 1
 149.682617188 541.4765625 202.243164062 563.189453125 259.810546875 563.189453125 c 2
 484.895507812 563.189453125 l 2
 542.4296875 563.189453125 594.95703125 541.458984375 634.76171875 505.818359375 c 1
 696.943359375 568 l 1
 714.62109375 550.322265625 l 1
 652.439453125 488.140625 l 1
 688.096679688 448.317382812 709.810546875 395.756835938 709.810546875 338.189453125 c 2
 709.810546875 338.083007812 l 2
 709.810546875 280.556640625 688.075195312 228.037109375 652.439453125 188.23828125 c 1
 714.62109375 126.056640625 l 1
 696.943359375 108.37890625 l 1
 634.76171875 170.560546875 l 1
 594.9609375 134.922851562 542.438476562 113.189453125 484.91015625 113.189453125 c 2
 259.810546875 113.189453125 l 2
 202.243164062 113.189453125 149.682617188 134.90234375 109.859375 170.560546875 c 1
 47.677734375 108.37890625 l 1
 30 126.056640625 l 1
 92.181640625 188.23828125 l 1
 56.5458984375 228.036132812 34.810546875 280.5546875 34.810546875 338.079101562 c 2
 34.810546875 338.189453125 l 2
 34.810546875 395.756835938 56.5234375 448.317382812 92.181640625 488.140625 c 1
 30 550.322265625 l 1
 47.677734375 568 l 1
259.810546875 539.189453125 m 2
 149.205078125 539.190429688 59.810546875 448.794921875 59.810546875 338.189453125 c 2
 59.810546875 338.094726562 l 2
 59.810546875 227.533203125 149.237304688 137.189453125 259.810546875 137.189453125 c 2
 484.942382812 137.189453125 l 2
 595.44921875 137.189453125 684.810546875 227.567382812 684.810546875 338.077148438 c 2
 684.810546875 338.189453125 l 2
 684.810546875 448.748046875 595.489257812 539.189453125 484.948242188 539.189453125 c 2
 259.810546875 539.189453125 l 2
EndSplineSet
EndChar

StartChar: logicalnot
Encoding: 172 172 103
Width: 660
Flags: HW
LayerCount: 2
Fore
SplineSet
30 387 m 1
 630 387 l 1
 630 212 l 1
 605 212 l 1
 605 363 l 1
 30 363 l 1
 30 387 l 1
EndSplineSet
EndChar

StartChar: acute
Encoding: 180 180 104
Width: 154
Flags: HW
LayerCount: 2
Fore
SplineSet
124.3359375 750 m 1
 95.46875 750 l 1
 30 600 l 5
 48.8671875 600 l 5
 124.3359375 750 l 1
EndSplineSet
EndChar

StartChar: dieresis
Encoding: 168 168 105
Width: 300
Flags: HW
LayerCount: 2
Fore
SplineSet
55 600 m 0
 41.193359375 600 30 611.193359375 30 625 c 0
 30 638.806640625 41.193359375 650 55 650 c 0
 68.806640625 650 80 638.806640625 80 625 c 0
 80 611.193359375 68.806640625 600 55 600 c 0
245 600 m 0
 231.193359375 600 220 611.193359375 220 625 c 0
 220 638.806640625 231.193359375 650 245 650 c 0
 258.806640625 650 270 638.806640625 270 625 c 0
 270 611.193359375 258.806640625 600 245 600 c 0
EndSplineSet
EndChar

StartChar: dotlessi
Encoding: 305 305 108
Width: 235
Flags: HW
LayerCount: 2
Fore
SplineSet
30 500 m 5
 130 500 l 5
 130 24 l 5
 205 24 l 5
 205 0 l 5
 30 0 l 5
 30 24 l 5
 105 24 l 5
 105 476 l 5
 30 476 l 5
 30 500 l 5
EndSplineSet
EndChar

StartChar: germandbls
Encoding: 223 223 139
Width: 739
Flags: HW
LayerCount: 2
Fore
SplineSet
234.5 752 m 6
 454.595703125 752 l 6
 561.823242188 752 649 664.739257812 649 557.5 c 6
 649 557.40234375 l 6
 649 481.365234375 605.090820312 415.423828125 541.3359375 383.48828125 c 5
 631.043945312 366.229492188 699 287.178710938 699 192.5 c 6
 699 192.416992188 l 6
 699 85.18359375 611.744140625 -2 504.5 -2 c 6
 234.5 -2 l 5
 234.5 22 l 5
 504.5 22 l 6
 598.216796875 22 674 98.6689453125 674 192.37109375 c 6
 674 192.5 l 6
 674 286.260742188 598.260742188 363 504.5 363 c 6
 234.5 363 l 5
 234.5 387 l 5
 454.5 387 l 6
 548.227539062 387 624 463.685546875 624 557.401367188 c 6
 624 557.5 l 6
 624 651.229492188 548.310546875 728 454.592773438 728 c 6
 234.5 728 l 6
 140.739257812 728 65 651.260742188 65 557.5 c 6
 65 0 l 5
 40 0 l 5
 40 557.5 l 6
 40 664.771484375 127.228515625 752 234.5 752 c 6
EndSplineSet
EndChar

StartChar: degree
Encoding: 176 176 140
Width: 314
Flags: HW
LayerCount: 2
Fore
SplineSet
157 752 m 4
 226.9921875 752 284 694.9921875 284 625 c 4
 284 555.0078125 226.9921875 498 157 498 c 4
 87.0078125 498 30 555.0078125 30 625 c 4
 30 694.9921875 87.0078125 752 157 752 c 4
157 728 m 4
 100.518554688 728 55 681.481445312 55 625 c 4
 55 568.518554688 100.518554688 522 157 522 c 4
 213.481445312 522 259 568.518554688 259 625 c 4
 259 681.481445312 213.481445312 728 157 728 c 4
EndSplineSet
EndChar

StartChar: uni00B9
Encoding: 185 185 141
Width: 205
Flags: HW
LayerCount: 2
Fore
SplineSet
40 718.353515625 m 1
 165.5703125 752 l 1
 165.5703125 375 l 1
 140.5703125 375 l 1
 140.5703125 720.455078125 l 1
 46.2109375 695.171875 l 1
 40 718.353515625 l 1
EndSplineSet
EndChar

StartChar: uni00B2
Encoding: 178 178 142
Width: 438
Flags: HW
LayerCount: 2
Fore
SplineSet
156 752 m 2
 282 752 l 2
 351.439453125 752 408 695.439453125 408 626 c 0
 408 577.8046875 380.75 535.821289062 340.861328125 514.638671875 c 2
 125.44921875 399 l 1
 407 399 l 1
 407 375 l 1
 30 375 l 1
 329.423828125 535.97265625 l 2
 361.340820312 553.20703125 383 587.232421875 383 626 c 0
 383 681.928710938 337.928710938 728 282 728 c 2
 156 728 l 2
 100.071289062 728 55 681.928710938 55 626 c 1
 30 626 l 1
 30 695.439453125 86.560546875 752 156 752 c 2
EndSplineSet
EndChar

StartChar: uni00B3
Encoding: 179 179 143
Width: 438
Flags: HW
LayerCount: 2
Fore
SplineSet
130.75 752 m 2
 307.25 752 l 2
 362.745117188 752 408 706.745117188 408 651.25 c 2
 408 651.153320312 l 2
 408 612.897460938 386.418945312 579.521484375 354.849609375 562.5 c 1
 386.4453125 545.463867188 408 512.045898438 408 473.75 c 2
 408 473.631835938 l 2
 408 418.19140625 362.705078125 373 307.25 373 c 2
 130.75 373 l 2
 75.2548828125 373 30 418.254882812 30 473.75 c 1
 55 473.75 l 1
 55 431.766601562 88.7666015625 397 130.75 397 c 2
 307.25 397 l 2
 349.196289062 397 383 431.704101562 383 473.63671875 c 2
 383 473.75 l 2
 383 515.733398438 349.233398438 550.5 307.25 550.5 c 2
 108.75 550.5 l 1
 108.75 574.5 l 1
 307.25 574.5 l 2
 349.216796875 574.5 383 609.239257812 383 651.200195312 c 2
 383 651.25 l 2
 383 693.233398438 349.233398438 728 307.25 728 c 2
 130.75 728 l 2
 88.7666015625 728 55 693.233398438 55 651.25 c 1
 30 651.25 l 1
 30 706.744140625 75.2548828125 752 130.75 752 c 2
EndSplineSet
EndChar

StartChar: periodcentered
Encoding: 183 183 144
Width: 110
Flags: HW
LayerCount: 2
Fore
SplineSet
80 375 m 4
 80 361.202148438 68.7978515625 350 55 350 c 4
 41.2021484375 350 30 361.202148438 30 375 c 4
 30 388.797851562 41.2021484375 400 55 400 c 4
 68.7978515625 400 80 388.797851562 80 375 c 4
EndSplineSet
EndChar

StartChar: mu
Encoding: 181 181 145
Width: 852
Flags: HW
LayerCount: 2
Fore
SplineSet
302 -2 m 6
 202.095703125 -2 115.76171875 57.1162109375 75 141.416015625 c 5
 75 -199.919921875 l 5
 50 -199.919921875 l 5
 50 500.080078125 l 5
 75 500.080078125 l 5
 75 250 l 6
 74.9736328125 124.631835938 176.631835938 22 302 22 c 6
 550.560546875 22 l 6
 675.709960938 22.30859375 777 124.849609375 777 250 c 6
 777 500 l 5
 802 500 l 5
 802 250 l 6
 802 110.890625 689.284179688 -2 550.19921875 -2 c 6
 302 -2 l 6
EndSplineSet
EndChar

StartChar: Oslash
Encoding: 216 216 146
Width: 1191
Flags: HW
LayerCount: 2
Fore
SplineSet
1130.765625 697.892578125 m 1
 1142.765625 677.107421875 l 1
 1061.453125 630.16015625 l 1
 1123.24316406 562.989257812 1161 473.356445312 1161 375 c 2
 1161 374.7578125 l 2
 1161 166.8984375 992.133789062 -2 784.279296875 -2 c 2
 407 -2 l 2
 306.220703125 -2 214.598632812 37.6357421875 146.91796875 102.154296875 c 1
 60.234375 52.107421875 l 1
 48.234375 72.892578125 l 1
 129.546875 119.837890625 l 1
 67.796875 186.919921875 30.0439453125 276.415039062 30 374.65625 c 2
 30 375 l 2
 29.9072265625 583.063476562 198.936523438 752 407 752 c 2
 784.20703125 752 l 2
 884.926757812 752 976.462890625 712.360351562 1044.08984375 647.849609375 c 1
 1130.765625 697.892578125 l 1
407 728 m 2
 212.447265625 728 54.9267578125 569.552734375 55 375 c 2
 55 374.728515625 l 2
 55.03515625 281.002929688 91.6494140625 195.674804688 151.34765625 132.42578125 c 1
 1021.95507812 635.0703125 l 1
 959.366210938 692.734375 875.91015625 728 784.193359375 728 c 2
 407 728 l 2
1039.65625 617.578125 m 1
 169.056640625 114.935546875 l 1
 231.6953125 57.26171875 315.225585938 22 407 22 c 2
 784.27734375 22 l 2
 978.627929688 22 1136 180.418945312 1136 374.77734375 c 2
 1136 375 l 2
 1136 468.81640625 1099.38574219 554.2578125 1039.65625 617.578125 c 1
EndSplineSet
EndChar

StartChar: oslash
Encoding: 248 248 147
Width: 814
Flags: HW
LayerCount: 2
Fore
SplineSet
768.9609375 472.892578125 m 1
 780.9609375 452.107421875 l 1
 720.513671875 417.208984375 l 1
 760.00390625 372.719726562 784 314.166992188 784 250 c 2
 784 249.919921875 l 2
 784 110.813476562 671.201171875 -2 532.09765625 -2 c 2
 282 -2 l 2
 215.870117188 -2 155.696289062 23.4853515625 110.73828125 65.154296875 c 1
 44.83984375 27.107421875 l 1
 32.83984375 47.892578125 l 1
 93.41015625 82.86328125 l 1
 53.974609375 127.322265625 30.01171875 185.8125 30 249.908203125 c 2
 30 250 l 2
 29.9755859375 389.109375 142.715820312 502 281.80078125 502 c 2
 532 502 l 2
 598.09375 502 658.233398438 476.541992188 703.1796875 434.9140625 c 1
 768.9609375 472.892578125 l 1
281.439453125 478 m 2
 156.290039062 477.69140625 55 375.150390625 55 250 c 2
 55 249.888671875 l 2
 55.0146484375 190.467773438 77.8828125 136.172851562 115.279296875 95.490234375 c 1
 680.806640625 421.99609375 l 1
 640.958007812 456.8359375 588.924804688 478 532 478 c 2
 281.439453125 478 l 2
698.6484375 404.583984375 m 1
 133.11328125 78.072265625 l 1
 172.97265625 43.19140625 225.037109375 22 282 22 c 2
 532.08984375 22 l 2
 657.384765625 22 758.973632812 124.609375 759 249.904296875 c 2
 759 250 l 2
 759.012695312 309.5 736.108398438 363.8671875 698.6484375 404.583984375 c 1
EndSplineSet
EndChar

StartChar: Euro
Encoding: 8364 8364 148
Width: 1153
Flags: HW
LayerCount: 2
Fore
SplineSet
479.79296875 752 m 6
 857 752 l 6
 961.000976562 752 1055.23046875 709.70703125 1123.44335938 641.443359375 c 5
 1106.12304688 624.123046875 l 5
 1042.44921875 688.225585938 954.365234375 728 856.986328125 728 c 6
 479.79296875 728 l 6
 315.28125 728 177.233398438 614.72265625 138.59375 462.090820312 c 6
 138.5703125 462 l 5
 857 462 l 5
 857 438 l 5
 133.380859375 438 l 5
 129.704101562 417.549804688 127.78515625 396.49609375 127.79296875 375 c 6
 127.79296875 374.728515625 l 6
 127.80078125 353.327148438 129.719726562 332.364257812 133.380859375 312 c 5
 857 312 l 5
 857 288 l 5
 138.5703125 288 l 5
 138.591796875 287.9140625 l 6
 177.231445312 135.274414062 315.279296875 22 479.79296875 22 c 6
 857.0703125 22 l 6
 954.416992188 22 1042.47167969 61.7841796875 1106.12695312 125.873046875 c 5
 1123.4453125 108.5546875 l 5
 1055.24804688 40.302734375 961.046875 -2 857.072265625 -2 c 6
 479.79296875 -2 l 6
 301.708984375 -2 152.201171875 121.739257812 112.903320312 287.88671875 c 6
 112.876953125 288 l 5
 30 288 l 5
 30 312 l 5
 108.0234375 312 l 5
 104.594726562 332.380859375 102.802734375 353.311523438 102.79296875 374.65625 c 6
 102.79296875 375 l 6
 102.783203125 396.463867188 104.578125 417.510742188 108.025390625 438 c 5
 30 438 l 5
 30 462 l 5
 112.876953125 462 l 5
 112.896484375 462.081054688 l 6
 152.189453125 628.239257812 301.697265625 752 479.79296875 752 c 6
EndSplineSet
EndChar

StartChar: divide
Encoding: 247 247 149
Width: 735
Flags: HW
LayerCount: 2
Fore
SplineSet
30 387 m 1
 705 387 l 1
 705 363 l 1
 30 363 l 1
 30 387 l 1
392.5 500 m 0
 392.5 486.202148438 381.297851562 475 367.5 475 c 0
 353.702148438 475 342.5 486.202148438 342.5 500 c 0
 342.5 513.797851562 353.702148438 525 367.5 525 c 0
 381.297851562 525 392.5 513.797851562 392.5 500 c 0
392.5 250 m 0
 392.5 236.202148438 381.297851562 225 367.5 225 c 0
 353.702148438 225 342.5 236.202148438 342.5 250 c 0
 342.5 263.797851562 353.702148438 275 367.5 275 c 0
 381.297851562 275 392.5 263.797851562 392.5 250 c 0
EndSplineSet
EndChar

StartChar: multiply
Encoding: 215 215 150
Width: 501
Flags: HW
LayerCount: 2
Fore
SplineSet
454.263671875 596 m 1
 471.94140625 578.322265625 l 1
 268.6484375 375.029296875 l 1
 471.94140625 171.736328125 l 1
 454.263671875 154.05859375 l 1
 250.970703125 357.3515625 l 1
 47.677734375 154.05859375 l 1
 30 171.736328125 l 1
 233.29296875 375.029296875 l 1
 30 578.322265625 l 1
 47.677734375 596 l 1
 250.970703125 392.70703125 l 1
 454.263671875 596 l 1
EndSplineSet
EndChar

StartChar: Thorn
Encoding: 222 222 151
Width: 746
Flags: HW
LayerCount: 2
Fore
SplineSet
40 750 m 1
 65 750 l 1
 65 600 l 1
 512.25 600 l 2
 619.668945312 600 706.764648438 512.918945312 706.75 405.5 c 2
 706.75 405.42578125 l 2
 706.735351562 298.041015625 619.64453125 213 512.25 213 c 2
 65 213 l 1
 65 0 l 1
 40 0 l 1
 40 750 l 1
65 576 m 1
 65 237 l 1
 512.25 237 l 2
 605.827148438 237 681.723632812 311.831054688 681.75 405.39453125 c 2
 681.75 405.5 l 2
 681.776367188 499.112304688 605.862304688 576 512.25 576 c 2
 65 576 l 1
EndSplineSet
EndChar

StartChar: thorn
Encoding: 254 254 152
Width: 842
Flags: HW
LayerCount: 2
Fore
SplineSet
545.19921875 -2 m 6
 297 -2 l 6
 197.095703125 -2 110.760742188 57.1162109375 70 141.416015625 c 5
 70 -199.919921875 l 5
 45 -199.919921875 l 5
 45 750.080078125 l 5
 70 750.080078125 l 5
 70 358.58203125 l 5
 110.748046875 442.84765625 197.038085938 502 296.900390625 502 c 6
 545 502 l 6
 684.14453125 502 797 389.227539062 797 250.09375 c 6
 797 250 l 6
 797 110.890625 684.284179688 -2 545.19921875 -2 c 6
545.560546875 22 m 6
 670.709960938 22.3095703125 772 124.849609375 772 250 c 6
 772 250.111328125 l 6
 772 375.4296875 670.331054688 478 545 478 c 6
 296.91015625 478 l 6
 171.615234375 478 70.0263671875 375.392578125 70 250.09765625 c 6
 70 250 l 6
 69.9736328125 124.631835938 171.631835938 22 297 22 c 6
 545.560546875 22 l 6
EndSplineSet
EndChar
